<svg width="668" height="375" viewBox="0 0 668 375" fill="none" xmlns="http://www.w3.org/2000/svg">
<rect width="668" height="375" fill="white"/>
<path d="M495.424 170.973C496.362 171.89 497.037 173.118 498 174.023C496.199 181.699 490.785 189.313 490.785 189.313C488.835 192.71 486.834 194.484 483.408 196.406C479.944 198.352 475.531 198.402 472.38 200.833C471.079 201.837 470.079 203.201 468.754 204.193C465.077 206.958 459.588 206.375 456 209.265C454.874 210.17 453.987 211.398 452.749 212.154C451.336 213.01 449.61 213.183 448.072 213.791C444.084 215.353 441.858 219.495 439.97 223.327C439.545 224.195 439.107 225.112 439.107 226.079C439.107 226.873 439.407 227.642 439.77 228.349C442.433 233.606 449.023 236.583 454.774 235.119C455.837 234.846 456.9 234.45 458 234.45C459.563 234.462 460.989 235.293 462.327 236.111C465.54 238.058 469.066 240.427 469.729 244.109C470.267 247.135 468.441 250.359 465.628 251.674C463.014 252.901 459.926 252.579 457.15 253.422C454.387 254.265 451.823 257.427 453.399 259.845C453.824 260.503 454.499 260.986 454.849 261.681C455.85 263.652 453.849 265.971 454.287 268.129C454.512 269.257 455.375 270.46 454.749 271.427C454.237 272.233 453.086 272.221 452.149 272.432C450.16 272.878 448.647 274.862 448.76 276.883C448.873 278.681 450.073 280.554 449.26 282.166C448.347 283.964 445.784 283.89 443.771 283.629C441.758 283.381 439.107 283.629 438.569 285.576C438.332 286.407 438.569 287.411 437.994 288.044C437.607 288.478 436.981 288.577 436.406 288.577C434.606 288.577 432.905 287.771 431.13 287.51C429.354 287.238 427.178 287.746 426.516 289.408C425.14 292.855 420.326 294.355 418.063 297.307C417.413 298.175 416.688 299.08 415.637 299.365C414.575 299.663 413.462 299.241 412.374 299.13C407.147 298.609 401.108 304.66 397.569 300.816C395.269 298.324 397.244 294.293 399.67 291.925C402.083 289.557 405.184 287.089 405.084 283.716C405.034 281.782 403.871 279.996 403.859 278.049C403.846 275.085 406.447 272.754 407.297 269.914C408.273 266.653 406.535 262.809 403.434 261.358C400.333 259.895 396.244 261.011 394.318 263.826C393.331 265.277 392.831 267.124 391.405 268.166C388.829 270.063 384.878 267.806 383.94 264.768C383.003 261.718 384.078 258.469 385.141 255.468C382.065 251.19 374.788 252.442 371.474 256.522C368.148 260.614 367.698 266.232 367.448 271.477C366.948 282.414 366.76 293.351 366.885 304.3C366.948 309.062 366.385 314.94 361.959 316.812C360.171 317.556 358.12 317.42 356.307 318.102C350.03 320.433 350.855 329.399 352.868 335.76C351.856 336.628 350.618 337 349.33 337C349.105 337 348.892 336.988 348.667 336.963C348.58 336.963 348.492 336.95 348.405 336.938C348.38 336.938 348.355 336.938 348.33 336.938C348.204 336.926 348.092 336.913 347.979 336.876C347.829 336.851 347.679 336.814 347.529 336.777H347.517C347.517 336.777 347.479 336.777 347.454 336.764C347.342 336.74 347.217 336.702 347.092 336.665C347.092 336.665 347.083 336.661 347.067 336.653C347.067 336.653 346.979 336.64 346.942 336.616C346.867 336.603 346.779 336.578 346.704 336.541C346.529 336.479 346.354 336.417 346.179 336.33C346.029 336.281 345.891 336.219 345.754 336.144C345.616 336.082 345.479 336.008 345.341 335.934C345.191 335.859 345.041 335.772 344.903 335.686C344.878 335.673 344.853 335.661 344.841 335.648C344.766 335.599 344.691 335.549 344.616 335.5C344.578 335.487 344.553 335.462 344.516 335.438C344.241 335.252 343.978 335.053 343.728 334.855C343.678 334.805 343.616 334.756 343.566 334.718C343.553 334.706 343.553 334.694 343.541 334.694C343.491 334.644 343.441 334.607 343.391 334.557C343.278 334.458 343.165 334.346 343.053 334.235C342.928 334.136 342.815 334.012 342.703 333.888C342.615 333.788 342.515 333.677 342.44 333.565C342.403 333.528 342.365 333.478 342.328 333.429C342.278 333.379 342.228 333.329 342.19 333.267C341.953 332.97 341.715 332.66 341.502 332.35C341.465 332.3 341.44 332.263 341.402 332.213C339.927 330.068 338.889 327.65 337.539 325.418C337.401 325.183 337.276 324.972 337.126 324.761C337.126 324.736 337.101 324.699 337.064 324.674C336.964 324.525 336.864 324.377 336.764 324.228C336.613 324.017 336.476 323.806 336.313 323.608C336.301 323.57 336.276 323.546 336.251 323.508L336.063 323.285C335.938 323.136 335.826 322.975 335.701 322.826C335.576 322.665 335.438 322.516 335.313 322.38C335.288 322.343 335.263 322.318 335.238 322.293C335.226 322.268 335.213 322.256 335.188 322.231C334.975 321.996 334.75 321.76 334.513 321.524C334.038 321.041 333.525 320.594 332.987 320.173C332.762 319.974 332.525 319.801 332.287 319.64C332.212 319.578 332.15 319.516 332.075 319.478C331.812 319.292 331.537 319.106 331.262 318.933C331.149 318.846 331.037 318.772 330.924 318.71C330.887 318.672 330.849 318.66 330.812 318.635C330.474 318.424 330.136 318.238 329.799 318.052H329.786C329.636 317.966 329.474 317.879 329.299 317.792C329.236 317.755 329.186 317.718 329.124 317.693C329.011 317.631 328.886 317.569 328.761 317.507C328.586 317.408 328.386 317.321 328.198 317.222C328.123 317.184 328.061 317.16 327.998 317.135C327.948 317.11 327.911 317.085 327.873 317.073C327.786 317.023 327.698 316.974 327.611 316.936C327.361 316.825 327.123 316.726 326.873 316.651C326.66 316.577 326.435 316.502 326.21 316.453C326.11 316.428 325.998 316.403 325.898 316.378C325.685 316.341 325.473 316.316 325.273 316.304H325.26C325.06 316.304 324.872 316.341 324.685 316.416C324.61 316.44 324.535 316.465 324.46 316.502C324.435 316.515 324.41 316.515 324.397 316.527C324.31 316.564 324.222 316.614 324.135 316.651H324.122C323.935 316.738 323.747 316.825 323.559 316.887C323.472 316.924 323.397 316.949 323.322 316.961C323.247 316.974 323.172 316.986 323.097 316.986C322.909 317.011 322.734 316.974 322.547 316.899C322.422 316.837 322.297 316.775 322.184 316.701C322.097 316.639 321.997 316.564 321.921 316.49C321.921 316.49 321.913 316.478 321.896 316.453C321.896 316.453 321.809 316.366 321.771 316.316C321.746 316.304 321.721 316.279 321.709 316.254C321.684 316.23 321.671 316.217 321.659 316.192C321.659 316.192 321.659 316.184 321.659 316.168C321.659 316.168 321.621 316.118 321.609 316.093C321.609 316.093 321.609 316.081 321.596 316.081C321.584 316.081 321.596 316.068 321.596 316.068C321.571 316.031 321.546 315.994 321.534 315.944C321.521 315.919 321.509 315.907 321.509 315.882C321.509 315.87 321.496 315.858 321.496 315.845C321.496 315.845 321.496 315.833 321.484 315.833C321.471 315.82 321.459 315.808 321.459 315.783C321.434 315.746 321.421 315.709 321.421 315.672C321.396 315.634 321.384 315.597 321.371 315.56C321.359 315.535 321.359 315.51 321.359 315.485C321.321 315.423 321.309 315.349 321.296 315.275C321.271 315.188 321.259 315.101 321.246 315.002V314.865C321.221 314.667 321.209 314.456 321.209 314.233V314.196C321.209 314.01 321.209 313.824 321.221 313.638C321.234 313.427 321.259 313.229 321.284 313.018V312.968C321.284 312.968 321.284 312.956 321.284 312.943C321.296 312.844 321.309 312.757 321.321 312.658C321.321 312.534 321.346 312.41 321.371 312.286C321.371 312.286 321.375 312.278 321.384 312.261C321.396 312.175 321.409 312.075 321.421 311.989C321.609 310.811 321.821 309.633 321.759 308.727C321.746 308.591 321.734 308.455 321.709 308.331C321.696 308.269 321.684 308.207 321.671 308.145C321.646 308.045 321.609 307.946 321.571 307.859C321.396 307.475 321.209 307.103 320.984 306.756C320.984 306.756 320.946 306.681 320.921 306.657C320.909 306.619 320.884 306.594 320.859 306.57C320.671 306.272 320.471 305.999 320.258 305.726C319.996 305.404 319.721 305.106 319.421 304.809C319.283 304.672 319.158 304.548 319.021 304.412C319.008 304.4 318.983 304.387 318.958 304.362C318.946 304.338 318.933 304.325 318.921 304.325C318.921 304.3 318.908 304.325 318.908 304.325C318.871 304.276 318.821 304.238 318.783 304.201C318.721 304.139 318.658 304.09 318.595 304.04C318.558 304.003 318.52 303.978 318.483 303.953L317.995 303.544C317.995 303.544 317.958 303.507 317.933 303.494L317.708 303.308C317.633 303.246 317.558 303.197 317.483 303.147C317.37 303.048 317.258 302.961 317.133 302.874C317.108 302.862 317.095 302.85 317.07 302.825C317.008 302.788 316.945 302.738 316.882 302.688C316.845 302.664 316.82 302.639 316.782 302.614C316.67 302.54 316.557 302.453 316.445 302.378C316.345 302.304 316.232 302.23 316.132 302.155C315.532 301.734 314.919 301.324 314.319 300.915H314.307C313.957 300.667 313.619 300.419 313.269 300.171H313.256C313.044 300.01 312.831 299.836 312.619 299.675C312.194 299.328 311.781 298.981 311.381 298.621C311.181 298.435 310.993 298.249 310.806 298.063H310.793C310.643 297.914 310.506 297.753 310.368 297.592C310.293 297.517 310.23 297.443 310.155 297.356C310.105 297.294 310.055 297.232 310.005 297.17C309.855 296.984 309.705 296.798 309.568 296.612C309.443 296.426 309.318 296.24 309.205 296.054C309.205 296.054 309.201 296.046 309.193 296.029C309.143 295.967 309.105 295.893 309.068 295.831C309.043 295.794 309.018 295.757 309.005 295.719C308.993 295.695 308.98 295.682 308.98 295.657C308.98 295.657 308.968 295.657 308.968 295.633C308.918 295.571 308.88 295.496 308.843 295.409C308.768 295.273 308.705 295.137 308.642 295C308.492 294.665 308.367 294.331 308.28 293.971C308.255 293.897 308.23 293.822 308.217 293.748C308.205 293.723 308.205 293.698 308.205 293.673C308.205 293.661 308.205 293.649 308.205 293.624C308.192 293.599 308.192 293.574 308.192 293.549C308.192 293.537 308.192 293.525 308.167 293.5C308.167 293.475 308.167 293.45 308.167 293.425C308.155 293.363 308.142 293.289 308.13 293.215C308.13 293.19 308.117 293.165 308.117 293.14C308.105 292.967 308.08 292.805 308.067 292.644C308.055 292.619 308.055 292.582 308.055 292.557C308.042 292.359 308.042 292.173 308.042 291.975C308.042 291.888 308.055 291.826 308.055 291.751C308.055 291.516 308.055 291.28 308.08 291.045C308.092 290.908 308.105 290.759 308.117 290.611C308.105 290.598 308.105 290.586 308.117 290.573C308.117 290.561 308.117 290.549 308.13 290.536C308.117 290.487 308.117 290.449 308.13 290.4C308.142 290.338 308.142 290.263 308.155 290.189C308.155 290.139 308.167 290.09 308.167 290.028C308.205 289.718 308.242 289.42 308.28 289.11C308.317 288.8 308.355 288.49 308.38 288.18C308.43 287.746 308.455 287.3 308.455 286.866C308.455 286.295 308.405 285.737 308.28 285.179C308.167 284.683 307.905 284.051 307.555 283.319C307.405 283.034 307.242 282.736 307.067 282.414C306.892 282.104 306.692 281.782 306.492 281.447C306.292 281.112 306.067 280.777 305.842 280.43C305.604 280.095 305.366 279.748 305.116 279.401C305.041 279.289 304.966 279.19 304.879 279.078C304.591 278.669 304.279 278.26 303.954 277.851C303.916 277.813 303.891 277.764 303.854 277.727C303.678 277.503 303.503 277.293 303.316 277.069C303.178 276.896 303.028 276.71 302.866 276.536C302.716 276.363 302.566 276.189 302.403 276.015C302.328 275.929 302.253 275.842 302.165 275.755C302.003 275.569 301.84 275.395 301.678 275.234C301.315 274.862 300.94 274.503 300.59 274.193C300.465 274.081 300.34 273.969 300.227 273.87C300.165 273.821 300.115 273.771 300.065 273.734C300.027 273.697 299.99 273.672 299.952 273.647C299.902 273.61 299.865 273.573 299.827 273.548C299.727 273.461 299.627 273.399 299.54 273.337C299.502 273.3 299.465 273.275 299.44 273.263C299.315 273.163 299.19 273.077 299.065 273.002C298.915 272.915 298.777 272.829 298.639 272.767C298.577 272.729 298.502 272.692 298.452 272.667C298.327 272.605 298.214 272.556 298.114 272.519C298.077 272.506 298.052 272.494 298.039 272.494C298.027 272.481 298.014 272.481 298.002 272.481C297.889 272.444 297.789 272.419 297.689 272.395C297.277 272.308 296.864 272.233 296.451 272.159C296.189 272.109 295.939 272.06 295.676 272.023C294.901 271.899 294.138 271.787 293.388 271.688C293.013 271.638 292.663 271.589 292.3 271.551C291.962 271.514 291.637 271.477 291.312 271.44C290.262 271.316 289.224 271.217 288.199 271.105C286.636 270.944 285.098 270.758 283.56 270.522C283.047 270.435 282.535 270.348 282.022 270.249C281.672 270.175 281.309 270.1 280.959 270.026C280.546 269.939 280.134 269.84 279.734 269.728C279.484 269.654 279.221 269.592 278.971 269.518C278.721 269.443 278.458 269.369 278.208 269.294C278.158 269.282 278.121 269.257 278.071 269.245C278.008 269.232 277.971 269.22 277.908 269.195C277.896 269.183 277.883 269.183 277.858 269.17C277.833 269.17 277.808 269.17 277.783 269.158C277.708 269.133 277.646 269.108 277.571 269.084C277.02 268.898 276.458 268.687 275.908 268.464C275.795 268.426 275.682 268.377 275.57 268.315C275.232 268.191 274.907 268.042 274.57 267.881C274.507 267.844 274.432 267.819 274.37 267.782C273.857 267.546 273.344 267.273 272.832 266.988C272.344 266.715 271.844 266.43 271.344 266.145H271.331C271.081 265.996 270.831 265.86 270.581 265.711C270.318 265.562 270.056 265.413 269.793 265.264C269.531 265.116 269.281 264.979 269.018 264.843C268.88 264.768 268.755 264.694 268.618 264.62C268.493 264.558 268.355 264.483 268.23 264.421C268.155 264.384 268.093 264.347 268.03 264.31C267.83 264.21 267.63 264.111 267.43 264.012C266.905 263.739 266.367 263.491 265.829 263.256C263.966 262.45 262.091 261.891 260.29 261.891C259.928 261.891 259.553 261.916 259.19 261.966C258.827 262.015 258.465 262.09 258.115 262.201C257.94 262.251 257.765 262.313 257.602 262.375C257.602 262.375 257.552 262.4 257.527 262.412C257.502 262.412 257.477 262.425 257.452 262.449C257.427 262.449 257.414 262.449 257.402 262.474C257.389 262.462 257.377 262.474 257.364 262.474C257.327 262.474 257.302 262.487 257.264 262.511C257.227 262.524 257.202 262.536 257.164 262.561L257.089 262.598C257.089 262.598 257.089 262.586 257.077 262.598C256.739 262.76 256.414 262.958 256.089 263.181C255.964 263.268 255.839 263.367 255.714 263.466C255.689 263.479 255.664 263.504 255.651 263.516C255.539 263.603 255.439 263.69 255.339 263.764C255.226 263.876 255.101 263.975 254.989 264.074C254.926 264.111 254.864 264.161 254.801 264.223C254.739 264.272 254.689 264.322 254.626 264.372C254.626 264.372 254.551 264.446 254.514 264.471C254.451 264.533 254.376 264.595 254.313 264.632C254.288 264.644 254.276 264.657 254.263 264.669L254.238 264.694C254.188 264.744 254.138 264.781 254.088 264.806C254.026 264.855 253.951 264.905 253.876 264.954C253.876 264.954 253.851 264.979 253.826 264.992C253.713 265.066 253.601 265.14 253.476 265.202C253.338 265.277 253.201 265.351 253.063 265.413H253.051C252.888 265.475 252.738 265.537 252.575 265.574C252.5 265.599 252.438 265.612 252.363 265.624C252.338 265.624 252.313 265.624 252.288 265.624C252.288 265.624 252.225 265.649 252.2 265.649C252.163 265.649 252.113 265.649 252.075 265.661C251.988 265.686 251.9 265.686 251.813 265.686C251.725 265.698 251.625 265.698 251.538 265.698H251.475C251.388 265.698 251.288 265.698 251.188 265.686C251.163 265.674 251.125 265.674 251.1 265.674C251.037 265.674 250.962 265.674 250.9 265.649C250.887 265.649 250.887 265.661 250.887 265.661C250.887 265.661 250.887 265.649 250.875 265.649C250.837 265.649 250.812 265.649 250.787 265.636C250.712 265.624 250.637 265.612 250.562 265.599H250.55C250.475 265.574 250.4 265.562 250.325 265.537H250.287C250.287 265.537 250.275 265.525 250.262 265.525H250.25L250.225 265.512C250.175 265.512 250.125 265.5 250.087 265.488C250 265.463 249.912 265.426 249.837 265.401C249.775 265.401 249.725 265.364 249.662 265.351C249.612 265.326 249.55 265.302 249.5 265.277C249.337 265.215 249.174 265.153 249.012 265.078C248.912 265.041 248.812 264.992 248.724 264.942C248.537 264.855 248.362 264.768 248.187 264.657C248.049 264.582 247.912 264.508 247.774 264.421C247.649 264.347 247.511 264.26 247.374 264.173C247.099 264 246.836 263.826 246.561 263.64C246.436 263.553 246.299 263.466 246.173 263.38C246.048 263.28 245.911 263.194 245.786 263.107C245.536 262.921 245.286 262.747 245.036 262.574C244.873 262.462 244.698 262.35 244.51 262.251C244.348 262.139 244.16 262.04 243.985 261.953C243.385 261.656 242.735 261.408 242.085 261.259C241.922 261.209 241.76 261.172 241.597 261.147C241.41 261.11 241.222 261.085 241.047 261.073C240.922 261.048 240.809 261.048 240.697 261.048C240.422 261.023 240.147 261.023 239.897 261.048C239.872 261.048 239.847 261.048 239.834 261.061C239.734 261.061 239.634 261.073 239.534 261.098C239.496 261.11 239.446 261.11 239.409 261.123C239.371 261.123 239.334 261.135 239.296 261.147C239.196 261.172 239.109 261.197 239.021 261.222C238.996 261.234 238.971 261.234 238.959 261.247C238.871 261.271 238.784 261.309 238.696 261.358C238.646 261.371 238.596 261.395 238.546 261.42C238.546 261.42 238.538 261.42 238.521 261.42C238.521 261.42 238.459 261.445 238.434 261.47C238.196 261.594 237.984 261.755 237.796 261.953C237.683 262.065 237.583 262.189 237.483 262.326C237.396 262.462 237.321 262.598 237.246 262.759C237.221 262.822 237.196 262.884 237.158 262.933C237.146 262.983 237.108 263.032 237.083 263.082C237.083 263.082 237.083 263.094 237.071 263.094C236.958 263.293 236.808 263.479 236.633 263.628H236.621C236.546 263.727 236.458 263.801 236.371 263.863C236.358 263.863 236.358 263.876 236.346 263.888C236.308 263.913 236.27 263.938 236.233 263.95C236.208 263.975 236.195 263.987 236.17 264C236.158 264.012 236.145 264.024 236.12 264.037C236.108 264.037 236.083 264.062 236.07 264.074C236.07 264.074 236.07 264.074 236.045 264.086C235.62 264.334 235.133 264.52 234.62 264.657C234.482 264.682 234.357 264.706 234.22 264.744C234.045 264.781 233.87 264.806 233.682 264.83C233.495 264.855 233.32 264.88 233.132 264.892C232.669 264.93 232.207 264.942 231.769 264.942H231.281C231.194 264.942 231.094 264.93 231.006 264.917C230.894 264.905 230.769 264.905 230.644 264.892C230.481 264.868 230.331 264.855 230.169 264.843C230.006 264.818 229.844 264.806 229.681 264.793C229.156 264.731 228.643 264.706 228.156 264.768C228.03 264.781 227.905 264.806 227.78 264.83C227.618 264.868 227.468 264.93 227.33 264.992C227.18 265.054 227.043 265.128 226.918 265.227C226.83 265.289 226.755 265.351 226.68 265.426C226.342 265.736 226.092 266.132 225.88 266.566C225.83 266.666 225.78 266.777 225.73 266.889C225.58 267.211 225.43 267.546 225.267 267.868C225.192 268.017 225.117 268.154 225.042 268.278C224.967 268.414 224.88 268.538 224.78 268.65C224.717 268.736 224.654 268.811 224.579 268.873C224.442 269.022 224.279 269.146 224.104 269.245C224.067 269.257 224.042 269.282 224.004 269.294C223.954 269.332 223.892 269.356 223.817 269.381C223.667 269.456 223.479 269.53 223.279 269.592C223.217 269.604 223.142 269.629 223.079 269.654C223.079 269.654 223.016 269.691 222.979 269.691C222.904 269.728 222.816 269.753 222.741 269.766C222.704 269.79 222.679 269.79 222.654 269.79C222.016 269.964 221.341 270.1 220.916 270.063C225.755 257.341 223.267 240.489 211.2 233.978C208.149 232.354 204.486 231.325 202.535 228.473C199.347 223.872 201.61 215.973 196.646 213.382C194.895 212.476 192.757 212.625 190.944 211.918C181.679 208.285 190.619 191.259 182.717 185.307C179.628 182.951 174.902 183.398 172.139 180.682C169.113 177.768 169.888 172.882 170.901 168.815C172.851 160.767 175.289 152 182.129 147.276C184.592 145.577 187.468 144.51 189.819 142.688C197.059 136.971 197.684 125.042 205.861 120.714C207.399 119.883 209.237 119.412 210.938 119.908C217.977 122.029 212.713 134.677 218.478 139.154C223.704 143.184 230.181 136.438 235.983 133.263C246.261 127.634 262.741 132.197 267.855 121.706C270.381 116.56 268.768 109.281 273.369 105.834C277.32 102.883 283.447 104.954 287.599 102.263C292.087 99.4106 292 92.9253 294.701 88.3868C298.864 81.3558 308.968 79.967 313.919 73.4816C320.071 65.409 316.72 51.8059 324.972 45.8786C330.999 41.5881 341.065 43.4109 344.728 37C344.903 37.062 345.079 37.1488 345.254 37.2356C345.529 37.3596 345.804 37.4836 346.091 37.62C346.191 37.6572 346.279 37.7068 346.379 37.744C346.579 37.8308 346.779 37.93 346.979 38.0292C347.179 38.116 347.379 38.2152 347.592 38.302C348.004 38.5004 348.43 38.6864 348.867 38.8848C349.255 39.0584 349.642 39.2445 350.03 39.4181H350.043C350.443 39.6041 350.843 39.7901 351.243 39.9637C351.355 40.0257 351.468 40.0753 351.593 40.1249C351.881 40.2613 352.181 40.3977 352.481 40.5217C352.906 40.7077 353.319 40.8937 353.731 41.0797C354.144 41.2657 354.556 41.4393 354.957 41.6129C355.032 41.6501 355.094 41.6873 355.169 41.7121C355.532 41.8733 355.894 42.0221 356.257 42.1833C356.382 42.2329 356.495 42.2825 356.62 42.3321C357.107 42.5429 357.582 42.7413 358.057 42.9397C358.183 42.9893 358.308 43.0389 358.42 43.0885C359.733 43.6217 361.008 44.1178 362.221 44.5518C362.659 44.713 363.097 44.8618 363.509 44.9982C364.347 45.271 365.135 45.519 365.872 45.705C365.86 45.9406 365.847 46.1638 365.835 46.3746C365.797 46.9574 365.747 47.4906 365.685 47.999C365.622 48.5199 365.56 48.9911 365.497 49.4127C365.397 49.9955 365.297 50.5039 365.197 50.9503C365.147 51.1487 365.097 51.3223 365.06 51.4959C365.047 51.5579 365.022 51.6075 365.01 51.6571C364.972 51.7935 364.935 51.9175 364.897 52.0415C364.597 52.9964 364.297 53.5172 364.122 53.7652C364.097 53.8024 364.084 53.8272 364.059 53.852C364.047 53.852 364.047 53.8768 364.034 53.8768C364.022 53.8892 364.022 53.9016 364.022 53.914C363.997 53.9388 363.984 53.9512 363.984 53.9512H363.972C362.546 55.7864 363.622 57.8697 364.622 59.9653C364.747 60.2133 364.872 60.4737 365.022 60.7217C365.297 61.2425 365.585 61.7386 365.872 62.247C366.085 62.6314 366.31 63.0034 366.498 63.3878C366.685 63.7722 366.885 64.169 367.048 64.5658C367.273 65.1114 367.46 65.657 367.573 66.2151C367.61 66.4011 367.635 66.5995 367.66 66.7979V66.8351C367.698 67.0459 367.71 67.2443 367.723 67.4551C367.748 67.8767 367.76 68.2983 367.76 68.7199C367.76 69.7119 367.71 70.704 367.798 71.696C367.835 72.1548 367.898 72.626 368.01 73.0724C368.061 73.2708 368.123 73.4692 368.198 73.6676C368.273 73.8536 368.348 74.052 368.423 74.238C368.673 74.7837 368.986 75.3045 369.348 75.8005C369.473 75.9617 369.598 76.1229 369.724 76.2841C369.986 76.5941 370.261 76.8917 370.561 77.1893C370.861 77.4869 371.174 77.7721 371.487 78.0449C372.449 78.8757 373.512 79.6198 374.55 80.3266C374.65 80.401 374.763 80.463 374.863 80.525C374.963 80.587 375.075 80.6614 375.175 80.7358C375.388 80.8722 375.613 80.9962 375.838 81.1078C376.288 81.331 376.763 81.5046 377.251 81.5294C377.513 81.5294 377.763 81.5294 378.001 81.4798C378.101 81.455 378.201 81.4302 378.289 81.4054C378.301 81.4054 378.301 81.393 378.301 81.393C378.314 81.393 378.326 81.3806 378.351 81.3806H378.389C378.389 81.3806 378.464 81.3558 378.501 81.3434C378.514 81.3434 378.526 81.331 378.551 81.3186H378.564C378.651 81.2814 378.739 81.2442 378.826 81.207C378.951 81.145 379.089 81.083 379.214 81.0086C379.351 80.9342 379.489 80.8598 379.614 80.773C379.752 80.6862 379.889 80.5994 380.027 80.5002C380.427 80.215 380.827 79.905 381.227 79.6074C381.627 79.3098 382.027 79.0369 382.452 78.8013C383.015 78.4913 383.603 78.2929 384.253 78.2929C384.628 78.2929 384.991 78.3673 385.328 78.5037C385.766 78.6773 386.179 78.9502 386.516 79.285C386.979 79.719 387.354 80.2398 387.654 80.8102C387.892 81.2566 388.092 81.7402 388.242 82.2114C388.292 82.385 388.354 82.5462 388.404 82.7198C388.867 84.3567 389.192 86.1051 390.23 87.4319C390.305 87.5311 390.38 87.6303 390.467 87.7171C390.63 87.9032 390.805 88.0644 390.992 88.238C391.955 89.0316 393.193 89.5524 394.444 90.0112C394.944 90.2096 395.431 90.3832 395.919 90.5692C396.532 90.8048 397.119 91.0528 397.657 91.3256C397.97 91.4992 398.27 91.6728 398.532 91.896C398.62 91.9704 398.707 92.0324 398.795 92.1068C398.945 92.2432 399.082 92.3797 399.207 92.5161C399.295 92.6153 399.37 92.7269 399.445 92.8385C399.47 92.8633 399.483 92.8881 399.495 92.9129C399.52 92.9377 399.52 92.9625 399.533 92.9873C399.558 93.0121 399.57 93.0245 399.583 93.0493C399.658 93.1609 399.72 93.2849 399.77 93.4089C399.795 93.4585 399.82 93.5205 399.833 93.5825C399.895 93.7437 399.945 93.9173 399.983 94.1033C399.995 94.1901 399.995 94.2769 400.008 94.3637C400.008 94.4009 400.02 94.4381 400.02 94.4753C400.02 94.5373 400.033 94.5993 400.033 94.6613C400.045 94.7109 400.045 94.7729 400.045 94.8349V95.0209C400.033 95.0953 400.02 95.1697 400.02 95.2441C400.02 95.3061 400.008 95.3557 400.008 95.4177C399.995 95.4797 399.995 95.5541 399.983 95.6285C399.97 95.7649 399.945 95.9013 399.92 96.0377C399.895 96.1741 399.87 96.3105 399.845 96.4469C399.808 96.6825 399.758 96.9058 399.72 97.129C399.72 97.1786 399.72 97.2158 399.708 97.253C399.683 97.3894 399.67 97.5258 399.658 97.6622C399.633 97.7986 399.62 97.9474 399.62 98.0838C399.62 98.1582 399.608 98.245 399.608 98.3318C399.608 99.6958 400.083 100.923 400.87 102.027C401.133 102.387 401.421 102.746 401.733 103.081C401.896 103.255 402.058 103.416 402.221 103.577C402.558 103.9 402.921 104.21 403.296 104.507C403.684 104.805 404.071 105.09 404.459 105.363C404.859 105.623 405.259 105.884 405.659 106.119C405.859 106.243 406.072 106.367 406.272 106.479C408.11 107.545 410.111 108.674 411.636 110.124C411.811 110.286 411.974 110.447 412.136 110.62C412.449 110.955 412.737 111.315 412.999 111.687C413.262 112.059 413.487 112.443 413.662 112.853C413.849 113.287 413.987 113.708 414.087 114.167C414.187 114.638 414.225 115.109 414.225 115.581C414.225 117.069 413.812 118.544 413.412 120.02C413.274 120.503 413.137 120.987 413.012 121.471C412.799 122.364 412.637 123.269 412.524 124.174C412.461 124.633 412.424 125.092 412.399 125.55V125.699C412.361 126.158 412.349 126.617 412.361 127.063C412.361 127.485 412.361 127.894 412.386 128.303C412.424 129.134 412.512 129.952 412.649 130.771C412.712 131.193 412.787 131.589 412.874 131.999C412.949 132.321 413.024 132.656 413.149 132.953C413.274 133.251 413.449 133.524 413.699 133.735C414.3 134.206 415.15 134.206 415.925 134.144C416.7 134.094 417.538 134.007 418.326 133.821C419.501 133.561 420.601 133.09 421.302 132.234C421.477 132.023 421.627 131.8 421.752 131.552C422.014 131.019 422.102 130.461 422.102 129.89C422.102 128.539 421.552 127.1 421.239 125.736C421.002 124.67 420.939 123.542 421.114 122.45C421.139 122.302 421.164 122.14 421.202 121.992C421.227 121.892 421.239 121.793 421.277 121.694C421.277 121.669 421.289 121.644 421.302 121.62C421.327 121.496 421.364 121.384 421.402 121.272C421.427 121.198 421.452 121.123 421.477 121.049C421.514 120.962 421.539 120.875 421.589 120.789C421.589 120.776 421.602 120.751 421.614 120.739C421.614 120.727 421.627 120.702 421.627 120.677C421.639 120.677 421.639 120.677 421.639 120.677C421.702 120.541 421.777 120.404 421.852 120.268C421.964 120.069 422.089 119.883 422.227 119.697C422.364 119.511 422.515 119.338 422.677 119.164C424.015 117.788 426.378 117.403 427.966 118.321C428.141 118.433 428.316 118.544 428.466 118.693C428.516 118.73 428.554 118.767 428.604 118.817C428.704 118.904 428.791 119.015 428.879 119.127H428.891C429.154 119.499 429.354 119.921 429.542 120.342C429.604 120.479 429.667 120.627 429.717 120.764C429.767 120.888 429.817 121.012 429.879 121.136C429.904 121.21 429.929 121.272 429.967 121.334C430.004 121.434 430.042 121.52 430.092 121.607C430.117 121.669 430.154 121.744 430.192 121.806C430.229 121.88 430.267 121.942 430.304 122.004C430.317 122.016 430.317 122.029 430.329 122.041C430.404 122.153 430.479 122.264 430.567 122.376C430.617 122.438 430.667 122.488 430.717 122.537C430.767 122.587 430.817 122.636 430.867 122.686C430.967 122.785 431.067 122.872 431.18 122.946C431.405 123.108 431.63 123.244 431.867 123.331H431.88C432.13 123.442 432.38 123.517 432.643 123.554C433.48 123.69 434.406 123.604 435.318 123.356C435.731 123.244 436.144 123.108 436.556 122.934C436.756 122.847 436.956 122.76 437.144 122.674C437.544 122.488 437.919 122.289 438.269 122.078C438.494 121.942 438.719 121.806 438.957 121.657C439.67 121.223 440.42 120.813 441.17 120.479C441.42 120.355 441.683 120.243 441.933 120.156C442.07 120.107 442.196 120.057 442.321 120.032C442.446 119.983 442.571 119.945 442.696 119.908C442.821 119.871 442.958 119.846 443.083 119.821C443.633 119.71 444.159 119.673 444.696 119.722C445.171 119.772 445.634 119.896 446.084 120.131C446.372 120.28 446.622 120.441 446.847 120.652H446.859C446.972 120.751 447.072 120.851 447.172 120.962C447.672 121.496 448.01 122.153 448.222 122.884C448.297 123.157 448.36 123.442 448.422 123.728C448.435 123.79 448.435 123.839 448.447 123.889C448.485 124.124 448.51 124.36 448.535 124.596C448.56 124.757 448.572 124.93 448.572 125.092C448.585 125.203 448.585 125.315 448.585 125.426V125.513C448.585 125.513 448.597 125.588 448.597 125.625C448.61 125.786 448.61 125.947 448.61 126.096C448.622 126.555 448.622 127.026 448.622 127.497C448.622 128.179 448.597 128.874 448.635 129.556C448.622 129.729 448.622 129.903 448.635 130.077V130.312C448.635 130.399 448.635 130.473 448.647 130.548C448.647 130.659 448.647 130.783 448.672 130.895C448.672 130.969 448.672 131.031 448.685 131.106C448.71 131.341 448.735 131.565 448.76 131.788C448.798 132.073 448.848 132.358 448.91 132.631C448.948 132.792 448.985 132.941 449.035 133.09C449.123 133.387 449.235 133.673 449.36 133.933C449.56 134.33 449.798 134.689 450.11 134.999C450.21 135.111 450.31 135.21 450.436 135.297C450.673 135.483 450.936 135.657 451.236 135.793C451.923 136.115 452.749 136.264 453.436 136.574C453.636 136.661 453.837 136.773 454.012 136.934C454.062 136.946 454.112 136.996 454.162 137.045C454.224 137.095 454.274 137.157 454.324 137.231C454.374 137.281 454.412 137.331 454.449 137.38C455.149 138.459 454.462 139.86 453.536 140.79C453.449 140.89 453.336 140.989 453.236 141.076C453.161 141.138 453.086 141.2 453.011 141.262C452.886 141.361 452.749 141.46 452.624 141.559C452.261 141.857 451.898 142.142 451.561 142.452C451.036 142.936 450.611 143.481 450.423 144.163H450.411V144.225C450.386 144.312 450.36 144.411 450.36 144.498C450.335 144.61 450.336 144.721 450.336 144.845C450.336 144.92 450.335 144.994 450.348 145.068C450.348 145.106 450.348 145.13 450.36 145.155V145.23C450.36 145.23 450.373 145.292 450.386 145.329C450.386 145.366 450.386 145.403 450.411 145.44C450.436 145.552 450.461 145.651 450.498 145.763C450.561 145.949 450.636 146.122 450.736 146.284C450.748 146.308 450.761 146.333 450.786 146.37C450.886 146.544 450.998 146.718 451.136 146.866C451.136 146.866 451.148 146.891 451.161 146.904C451.236 146.99 451.311 147.077 451.398 147.152C451.586 147.338 451.798 147.511 452.024 147.66C452.149 147.734 452.274 147.809 452.411 147.883C452.424 147.883 452.436 147.883 452.449 147.908C452.449 147.908 452.457 147.912 452.474 147.921C452.561 147.958 452.649 147.995 452.736 148.032C454.274 148.615 456.025 148.355 457.6 147.858C460.489 146.966 463.114 145.329 465.215 143.184C465.74 142.65 466.24 142.08 466.703 141.485C467.003 141.1 467.291 140.691 467.553 140.282C467.616 140.208 467.666 140.121 467.716 140.034C467.791 139.947 467.841 139.848 467.891 139.749C467.966 139.625 468.041 139.501 468.103 139.377C468.241 139.141 468.378 138.893 468.516 138.657C468.529 138.645 468.516 138.645 468.516 138.645C469.016 137.641 469.441 136.599 469.754 135.508C469.754 135.508 469.754 135.52 469.766 135.52C471.167 137.455 471.805 138.695 472.105 139.65C472.18 139.86 472.23 140.059 472.267 140.257C472.33 140.542 472.367 140.815 472.392 141.063C472.405 141.237 472.417 141.41 472.43 141.584C472.442 141.758 472.455 141.931 472.467 142.105C472.48 142.291 472.505 142.477 472.542 142.663C472.567 142.861 472.605 143.072 472.667 143.295C472.73 143.518 472.792 143.754 472.88 144.014C472.967 144.275 473.08 144.548 473.205 144.858C473.342 145.155 473.493 145.49 473.68 145.837C473.855 146.197 474.068 146.581 474.318 147.003C474.568 147.412 474.843 147.871 475.156 148.355C475.331 148.627 475.493 148.888 475.631 149.161C475.781 149.421 475.918 149.694 476.031 149.954C476.143 150.215 476.243 150.475 476.343 150.735C476.919 152.385 477.031 154.009 476.931 155.782C476.894 156.514 476.819 157.27 476.731 158.052V158.076C476.681 158.473 476.631 158.87 476.581 159.279H476.593C476.744 159.341 476.894 159.403 477.044 159.478C477.406 159.651 477.744 159.862 478.056 160.122C478.644 160.581 479.144 161.164 479.519 161.834C479.644 162.057 479.757 162.292 479.869 162.54C479.969 162.801 480.07 163.061 480.145 163.334C480.17 163.408 480.195 163.483 480.207 163.545C480.62 165.132 480.495 166.856 479.732 168.269C479.632 168.443 479.532 168.617 479.419 168.79C479.182 169.113 478.919 169.423 478.607 169.708C478.632 169.943 478.682 170.167 478.757 170.377C478.832 170.576 478.932 170.762 479.057 170.935C480.045 172.337 482.383 172.659 484.446 172.237C484.996 172.126 485.521 171.952 485.996 171.741C486.121 171.692 486.246 171.63 486.384 171.58C487.534 171.072 488.747 170.464 489.948 170.067C490.223 169.981 490.485 169.894 490.76 169.832C491.298 169.695 491.836 169.621 492.348 169.621C492.711 169.621 493.073 169.658 493.424 169.745H493.436C493.786 169.844 494.124 169.968 494.461 170.154C494.849 170.365 495.199 170.638 495.512 170.948L495.424 170.973Z" stroke="#E44C7D" stroke-linecap="round" stroke-linejoin="round"/>
<mask id="path-2-outside-1_357_6609" maskUnits="userSpaceOnUse" x="177" y="152" width="308" height="80" fill="black">
<rect fill="white" x="177" y="152" width="308" height="80"/>
<path d="M196.141 208V164.29H215.113C219.908 164.29 223.607 165.447 226.211 167.762C228.815 170.035 230.117 173.239 230.117 177.372C230.117 180.637 229.27 183.345 227.575 185.494C225.881 187.602 223.442 189.028 220.259 189.772C222.367 190.433 224.103 192.025 225.467 194.546L232.783 208H224.041L216.477 194.05C215.733 192.686 214.845 191.756 213.811 191.26C212.819 190.764 211.538 190.516 209.967 190.516H204.077V208H196.141ZM204.077 184.626H213.749C219.536 184.626 222.429 182.27 222.429 177.558C222.429 172.887 219.536 170.552 213.749 170.552H204.077V184.626ZM247.58 208.62C245.39 208.62 243.426 208.207 241.69 207.38C239.996 206.512 238.652 205.355 237.66 203.908C236.71 202.461 236.234 200.829 236.234 199.01C236.234 196.778 236.813 195.021 237.97 193.74C239.128 192.417 241.008 191.467 243.612 190.888C246.216 190.309 249.709 190.02 254.09 190.02H256.26V188.718C256.26 186.651 255.806 185.163 254.896 184.254C253.987 183.345 252.458 182.89 250.308 182.89C248.614 182.89 246.878 183.159 245.1 183.696C243.323 184.192 241.525 184.977 239.706 186.052L237.474 180.782C238.549 180.038 239.81 179.397 241.256 178.86C242.744 178.281 244.294 177.847 245.906 177.558C247.56 177.227 249.11 177.062 250.556 177.062C254.979 177.062 258.265 178.095 260.414 180.162C262.564 182.187 263.638 185.349 263.638 189.648V208H256.384V203.164C255.682 204.859 254.566 206.202 253.036 207.194C251.507 208.145 249.688 208.62 247.58 208.62ZM249.192 203.288C251.218 203.288 252.892 202.585 254.214 201.18C255.578 199.775 256.26 197.997 256.26 195.848V194.484H254.152C250.267 194.484 247.56 194.794 246.03 195.414C244.542 195.993 243.798 197.067 243.798 198.638C243.798 200.002 244.274 201.118 245.224 201.986C246.175 202.854 247.498 203.288 249.192 203.288ZM271.257 171.172V163.608H279.937V171.172H271.257ZM264.685 219.966L264.127 214.324L266.979 214.014C270.161 213.642 271.753 211.782 271.753 208.434V177.682H279.503V207.442C279.503 211.493 278.573 214.469 276.713 216.37C274.853 218.313 271.732 219.449 267.351 219.78L264.685 219.966ZM297.532 208.62C295.341 208.62 293.378 208.207 291.642 207.38C289.947 206.512 288.604 205.355 287.612 203.908C286.661 202.461 286.186 200.829 286.186 199.01C286.186 196.778 286.764 195.021 287.922 193.74C289.079 192.417 290.96 191.467 293.564 190.888C296.168 190.309 299.66 190.02 304.042 190.02H306.212V188.718C306.212 186.651 305.757 185.163 304.848 184.254C303.938 183.345 302.409 182.89 300.26 182.89C298.565 182.89 296.829 183.159 295.052 183.696C293.274 184.192 291.476 184.977 289.658 186.052L287.426 180.782C288.5 180.038 289.761 179.397 291.208 178.86C292.696 178.281 294.246 177.847 295.858 177.558C297.511 177.227 299.061 177.062 300.508 177.062C304.93 177.062 308.216 178.095 310.366 180.162C312.515 182.187 313.59 185.349 313.59 189.648V208H306.336V203.164C305.633 204.859 304.517 206.202 302.988 207.194C301.458 208.145 299.64 208.62 297.532 208.62ZM299.144 203.288C301.169 203.288 302.843 202.585 304.166 201.18C305.53 199.775 306.212 197.997 306.212 195.848V194.484H304.104C300.218 194.484 297.511 194.794 295.982 195.414C294.494 195.993 293.75 197.067 293.75 198.638C293.75 200.002 294.225 201.118 295.176 201.986C296.126 202.854 297.449 203.288 299.144 203.288ZM332.554 208.62C329.991 208.62 327.594 208.31 325.362 207.69C323.13 207.07 321.27 206.181 319.782 205.024L321.766 199.94C323.295 200.973 325.01 201.779 326.912 202.358C328.813 202.895 330.714 203.164 332.616 203.164C334.6 203.164 336.067 202.833 337.018 202.172C338.01 201.469 338.506 200.56 338.506 199.444C338.506 197.708 337.224 196.592 334.662 196.096L328.462 194.918C323.212 193.926 320.588 191.198 320.588 186.734C320.588 184.75 321.125 183.035 322.2 181.588C323.316 180.141 324.845 179.025 326.788 178.24C328.73 177.455 330.962 177.062 333.484 177.062C335.633 177.062 337.7 177.372 339.684 177.992C341.668 178.571 343.362 179.459 344.768 180.658L342.66 185.742C341.461 184.75 340.014 183.965 338.32 183.386C336.666 182.807 335.075 182.518 333.546 182.518C331.52 182.518 330.012 182.869 329.02 183.572C328.069 184.275 327.594 185.205 327.594 186.362C327.594 188.181 328.772 189.297 331.128 189.71L337.328 190.888C340.014 191.384 342.04 192.293 343.404 193.616C344.809 194.939 345.512 196.716 345.512 198.948C345.512 201.965 344.334 204.342 341.978 206.078C339.622 207.773 336.48 208.62 332.554 208.62ZM365.314 208.62C357.296 208.62 353.286 204.652 353.286 196.716V183.51H347.458V177.682H353.286V168.63H361.036V177.682H370.212V183.51H361.036V196.282C361.036 198.266 361.47 199.754 362.338 200.746C363.206 201.738 364.612 202.234 366.554 202.234C367.133 202.234 367.732 202.172 368.352 202.048C368.972 201.883 369.613 201.717 370.274 201.552L371.452 207.256C370.708 207.669 369.758 208 368.6 208.248C367.484 208.496 366.389 208.62 365.314 208.62ZM375.221 208V164.29H382.971V182.084C384.005 180.431 385.389 179.191 387.125 178.364C388.861 177.496 390.783 177.062 392.891 177.062C400.042 177.062 403.617 181.216 403.617 189.524V208H395.867V189.896C395.867 187.54 395.413 185.825 394.503 184.75C393.635 183.675 392.271 183.138 390.411 183.138C388.138 183.138 386.319 183.861 384.955 185.308C383.633 186.713 382.971 188.594 382.971 190.95V208H375.221ZM421.471 208.62C419.28 208.62 417.317 208.207 415.581 207.38C413.886 206.512 412.543 205.355 411.551 203.908C410.6 202.461 410.125 200.829 410.125 199.01C410.125 196.778 410.704 195.021 411.861 193.74C413.018 192.417 414.899 191.467 417.503 190.888C420.107 190.309 423.6 190.02 427.981 190.02H430.151V188.718C430.151 186.651 429.696 185.163 428.787 184.254C427.878 183.345 426.348 182.89 424.199 182.89C422.504 182.89 420.768 183.159 418.991 183.696C417.214 184.192 415.416 184.977 413.597 186.052L411.365 180.782C412.44 180.038 413.7 179.397 415.147 178.86C416.635 178.281 418.185 177.847 419.797 177.558C421.45 177.227 423 177.062 424.447 177.062C428.87 177.062 432.156 178.095 434.305 180.162C436.454 182.187 437.529 185.349 437.529 189.648V208H430.275V203.164C429.572 204.859 428.456 206.202 426.927 207.194C425.398 208.145 423.579 208.62 421.471 208.62ZM423.083 203.288C425.108 203.288 426.782 202.585 428.105 201.18C429.469 199.775 430.151 197.997 430.151 195.848V194.484H428.043C424.158 194.484 421.45 194.794 419.921 195.414C418.433 195.993 417.689 197.067 417.689 198.638C417.689 200.002 418.164 201.118 419.115 201.986C420.066 202.854 421.388 203.288 423.083 203.288ZM445.395 208V177.682H452.959V182.394C453.993 180.658 455.377 179.335 457.113 178.426C458.891 177.517 460.875 177.062 463.065 177.062C470.216 177.062 473.791 181.216 473.791 189.524V208H466.041V189.896C466.041 187.54 465.587 185.825 464.677 184.75C463.809 183.675 462.445 183.138 460.585 183.138C458.312 183.138 456.493 183.861 455.129 185.308C453.807 186.713 453.145 188.594 453.145 190.95V208H445.395Z"/>
</mask>
<path d="M196.141 208V164.29H215.113C219.908 164.29 223.607 165.447 226.211 167.762C228.815 170.035 230.117 173.239 230.117 177.372C230.117 180.637 229.27 183.345 227.575 185.494C225.881 187.602 223.442 189.028 220.259 189.772C222.367 190.433 224.103 192.025 225.467 194.546L232.783 208H224.041L216.477 194.05C215.733 192.686 214.845 191.756 213.811 191.26C212.819 190.764 211.538 190.516 209.967 190.516H204.077V208H196.141ZM204.077 184.626H213.749C219.536 184.626 222.429 182.27 222.429 177.558C222.429 172.887 219.536 170.552 213.749 170.552H204.077V184.626ZM247.58 208.62C245.39 208.62 243.426 208.207 241.69 207.38C239.996 206.512 238.652 205.355 237.66 203.908C236.71 202.461 236.234 200.829 236.234 199.01C236.234 196.778 236.813 195.021 237.97 193.74C239.128 192.417 241.008 191.467 243.612 190.888C246.216 190.309 249.709 190.02 254.09 190.02H256.26V188.718C256.26 186.651 255.806 185.163 254.896 184.254C253.987 183.345 252.458 182.89 250.308 182.89C248.614 182.89 246.878 183.159 245.1 183.696C243.323 184.192 241.525 184.977 239.706 186.052L237.474 180.782C238.549 180.038 239.81 179.397 241.256 178.86C242.744 178.281 244.294 177.847 245.906 177.558C247.56 177.227 249.11 177.062 250.556 177.062C254.979 177.062 258.265 178.095 260.414 180.162C262.564 182.187 263.638 185.349 263.638 189.648V208H256.384V203.164C255.682 204.859 254.566 206.202 253.036 207.194C251.507 208.145 249.688 208.62 247.58 208.62ZM249.192 203.288C251.218 203.288 252.892 202.585 254.214 201.18C255.578 199.775 256.26 197.997 256.26 195.848V194.484H254.152C250.267 194.484 247.56 194.794 246.03 195.414C244.542 195.993 243.798 197.067 243.798 198.638C243.798 200.002 244.274 201.118 245.224 201.986C246.175 202.854 247.498 203.288 249.192 203.288ZM271.257 171.172V163.608H279.937V171.172H271.257ZM264.685 219.966L264.127 214.324L266.979 214.014C270.161 213.642 271.753 211.782 271.753 208.434V177.682H279.503V207.442C279.503 211.493 278.573 214.469 276.713 216.37C274.853 218.313 271.732 219.449 267.351 219.78L264.685 219.966ZM297.532 208.62C295.341 208.62 293.378 208.207 291.642 207.38C289.947 206.512 288.604 205.355 287.612 203.908C286.661 202.461 286.186 200.829 286.186 199.01C286.186 196.778 286.764 195.021 287.922 193.74C289.079 192.417 290.96 191.467 293.564 190.888C296.168 190.309 299.66 190.02 304.042 190.02H306.212V188.718C306.212 186.651 305.757 185.163 304.848 184.254C303.938 183.345 302.409 182.89 300.26 182.89C298.565 182.89 296.829 183.159 295.052 183.696C293.274 184.192 291.476 184.977 289.658 186.052L287.426 180.782C288.5 180.038 289.761 179.397 291.208 178.86C292.696 178.281 294.246 177.847 295.858 177.558C297.511 177.227 299.061 177.062 300.508 177.062C304.93 177.062 308.216 178.095 310.366 180.162C312.515 182.187 313.59 185.349 313.59 189.648V208H306.336V203.164C305.633 204.859 304.517 206.202 302.988 207.194C301.458 208.145 299.64 208.62 297.532 208.62ZM299.144 203.288C301.169 203.288 302.843 202.585 304.166 201.18C305.53 199.775 306.212 197.997 306.212 195.848V194.484H304.104C300.218 194.484 297.511 194.794 295.982 195.414C294.494 195.993 293.75 197.067 293.75 198.638C293.75 200.002 294.225 201.118 295.176 201.986C296.126 202.854 297.449 203.288 299.144 203.288ZM332.554 208.62C329.991 208.62 327.594 208.31 325.362 207.69C323.13 207.07 321.27 206.181 319.782 205.024L321.766 199.94C323.295 200.973 325.01 201.779 326.912 202.358C328.813 202.895 330.714 203.164 332.616 203.164C334.6 203.164 336.067 202.833 337.018 202.172C338.01 201.469 338.506 200.56 338.506 199.444C338.506 197.708 337.224 196.592 334.662 196.096L328.462 194.918C323.212 193.926 320.588 191.198 320.588 186.734C320.588 184.75 321.125 183.035 322.2 181.588C323.316 180.141 324.845 179.025 326.788 178.24C328.73 177.455 330.962 177.062 333.484 177.062C335.633 177.062 337.7 177.372 339.684 177.992C341.668 178.571 343.362 179.459 344.768 180.658L342.66 185.742C341.461 184.75 340.014 183.965 338.32 183.386C336.666 182.807 335.075 182.518 333.546 182.518C331.52 182.518 330.012 182.869 329.02 183.572C328.069 184.275 327.594 185.205 327.594 186.362C327.594 188.181 328.772 189.297 331.128 189.71L337.328 190.888C340.014 191.384 342.04 192.293 343.404 193.616C344.809 194.939 345.512 196.716 345.512 198.948C345.512 201.965 344.334 204.342 341.978 206.078C339.622 207.773 336.48 208.62 332.554 208.62ZM365.314 208.62C357.296 208.62 353.286 204.652 353.286 196.716V183.51H347.458V177.682H353.286V168.63H361.036V177.682H370.212V183.51H361.036V196.282C361.036 198.266 361.47 199.754 362.338 200.746C363.206 201.738 364.612 202.234 366.554 202.234C367.133 202.234 367.732 202.172 368.352 202.048C368.972 201.883 369.613 201.717 370.274 201.552L371.452 207.256C370.708 207.669 369.758 208 368.6 208.248C367.484 208.496 366.389 208.62 365.314 208.62ZM375.221 208V164.29H382.971V182.084C384.005 180.431 385.389 179.191 387.125 178.364C388.861 177.496 390.783 177.062 392.891 177.062C400.042 177.062 403.617 181.216 403.617 189.524V208H395.867V189.896C395.867 187.54 395.413 185.825 394.503 184.75C393.635 183.675 392.271 183.138 390.411 183.138C388.138 183.138 386.319 183.861 384.955 185.308C383.633 186.713 382.971 188.594 382.971 190.95V208H375.221ZM421.471 208.62C419.28 208.62 417.317 208.207 415.581 207.38C413.886 206.512 412.543 205.355 411.551 203.908C410.6 202.461 410.125 200.829 410.125 199.01C410.125 196.778 410.704 195.021 411.861 193.74C413.018 192.417 414.899 191.467 417.503 190.888C420.107 190.309 423.6 190.02 427.981 190.02H430.151V188.718C430.151 186.651 429.696 185.163 428.787 184.254C427.878 183.345 426.348 182.89 424.199 182.89C422.504 182.89 420.768 183.159 418.991 183.696C417.214 184.192 415.416 184.977 413.597 186.052L411.365 180.782C412.44 180.038 413.7 179.397 415.147 178.86C416.635 178.281 418.185 177.847 419.797 177.558C421.45 177.227 423 177.062 424.447 177.062C428.87 177.062 432.156 178.095 434.305 180.162C436.454 182.187 437.529 185.349 437.529 189.648V208H430.275V203.164C429.572 204.859 428.456 206.202 426.927 207.194C425.398 208.145 423.579 208.62 421.471 208.62ZM423.083 203.288C425.108 203.288 426.782 202.585 428.105 201.18C429.469 199.775 430.151 197.997 430.151 195.848V194.484H428.043C424.158 194.484 421.45 194.794 419.921 195.414C418.433 195.993 417.689 197.067 417.689 198.638C417.689 200.002 418.164 201.118 419.115 201.986C420.066 202.854 421.388 203.288 423.083 203.288ZM445.395 208V177.682H452.959V182.394C453.993 180.658 455.377 179.335 457.113 178.426C458.891 177.517 460.875 177.062 463.065 177.062C470.216 177.062 473.791 181.216 473.791 189.524V208H466.041V189.896C466.041 187.54 465.587 185.825 464.677 184.75C463.809 183.675 462.445 183.138 460.585 183.138C458.312 183.138 456.493 183.861 455.129 185.308C453.807 186.713 453.145 188.594 453.145 190.95V208H445.395Z" fill="#2C2E31"/>
<path d="M196.141 208H184.941V219.2H196.141V208ZM196.141 164.29V153.09H184.941V164.29H196.141ZM226.211 167.762L218.77 176.133L218.808 176.166L218.845 176.199L226.211 167.762ZM227.575 185.494L236.304 192.511L236.337 192.47L236.37 192.429L227.575 185.494ZM220.259 189.772L217.71 178.866L177.811 188.193L216.907 200.458L220.259 189.772ZM225.467 194.546L215.616 199.875L215.622 199.886L215.628 199.896L225.467 194.546ZM232.783 208V219.2H251.622L242.623 202.65L232.783 208ZM224.041 208L214.195 213.339L217.374 219.2H224.041V208ZM216.477 194.05L226.323 188.711L226.316 188.699L226.31 188.687L216.477 194.05ZM213.811 191.26L208.802 201.278L208.883 201.318L208.965 201.357L213.811 191.26ZM204.077 190.516V179.316H192.877V190.516H204.077ZM204.077 208V219.2H215.277V208H204.077ZM204.077 184.626H192.877V195.826H204.077V184.626ZM204.077 170.552V159.352H192.877V170.552H204.077ZM207.341 208V164.29H184.941V208H207.341ZM196.141 175.49H215.113V153.09H196.141V175.49ZM215.113 175.49C216.634 175.49 217.593 175.676 218.14 175.847C218.405 175.93 218.565 176.007 218.649 176.053C218.73 176.098 218.763 176.126 218.77 176.133L233.652 159.391C228.337 154.667 221.615 153.09 215.113 153.09V175.49ZM218.845 176.199C218.857 176.209 218.834 176.19 218.802 176.145C218.769 176.099 218.759 176.072 218.765 176.087C218.776 176.115 218.917 176.475 218.917 177.372H241.317C241.317 170.698 239.095 164.142 233.577 159.325L218.845 176.199ZM218.917 177.372C218.917 178.038 218.831 178.385 218.793 178.506C218.762 178.606 218.752 178.595 218.78 178.559L236.37 192.429C239.908 187.941 241.317 182.65 241.317 177.372H218.917ZM218.846 178.477C218.892 178.42 218.916 178.421 218.822 178.476C218.707 178.543 218.378 178.71 217.71 178.866L222.809 200.678C227.904 199.487 232.735 196.951 236.304 192.511L218.846 178.477ZM216.907 200.458C216.292 200.266 215.835 199.957 215.574 199.718C215.349 199.511 215.403 199.48 215.616 199.875L235.318 189.217C232.996 184.924 229.255 180.856 223.612 179.086L216.907 200.458ZM215.628 199.896L222.944 213.35L242.623 202.65L235.307 189.196L215.628 199.896ZM232.783 196.8H224.041V219.2H232.783V196.8ZM233.887 202.661L226.323 188.711L206.631 199.389L214.195 213.339L233.887 202.661ZM226.31 188.687C224.834 185.981 222.444 182.98 218.658 181.163L208.965 201.357C208.125 200.954 207.53 200.46 207.155 200.067C206.796 199.691 206.65 199.423 206.645 199.413L226.31 188.687ZM218.82 181.242C215.763 179.714 212.6 179.316 209.967 179.316V201.716C210.177 201.716 210.163 201.734 209.978 201.698C209.79 201.662 209.362 201.557 208.802 201.278L218.82 181.242ZM209.967 179.316H204.077V201.716H209.967V179.316ZM192.877 190.516V208H215.277V190.516H192.877ZM204.077 196.8H196.141V219.2H204.077V196.8ZM204.077 195.826H213.749V173.426H204.077V195.826ZM213.749 195.826C217.874 195.826 223.047 195.032 227.331 191.544C232.056 187.697 233.629 182.318 233.629 177.558H211.229C211.229 177.611 211.219 177.145 211.522 176.407C211.852 175.6 212.424 174.796 213.187 174.174C214.578 173.042 215.411 173.426 213.749 173.426V195.826ZM233.629 177.558C233.629 172.785 232.033 167.413 227.294 163.588C223.013 160.133 217.857 159.352 213.749 159.352V181.752C214.479 181.752 214.727 181.83 214.637 181.805C214.524 181.775 213.941 181.597 213.225 181.019C212.459 180.4 211.875 179.592 211.535 178.768C211.223 178.013 211.229 177.527 211.229 177.558H233.629ZM213.749 159.352H204.077V181.752H213.749V159.352ZM192.877 170.552V184.626H215.277V170.552H192.877ZM241.69 207.38L236.585 217.348L236.729 217.422L236.875 217.492L241.69 207.38ZM237.66 203.908L228.3 210.059L228.361 210.151L228.423 210.242L237.66 203.908ZM237.97 193.74L246.282 201.247L246.341 201.182L246.399 201.115L237.97 193.74ZM243.612 190.888L241.183 179.955L243.612 190.888ZM256.26 190.02V201.22H267.46V190.02H256.26ZM254.896 184.254L246.977 192.174L246.977 192.174L254.896 184.254ZM245.1 183.696L248.111 194.484L248.227 194.452L248.342 194.417L245.1 183.696ZM239.706 186.052L229.393 190.42L234.385 202.206L245.404 195.694L239.706 186.052ZM237.474 180.782L231.099 171.573L223.608 176.76L227.161 185.15L237.474 180.782ZM241.256 178.86L245.156 189.359L245.236 189.329L245.316 189.298L241.256 178.86ZM245.906 177.558L247.885 188.582L247.994 188.562L248.103 188.541L245.906 177.558ZM260.414 180.162L252.652 188.235L252.692 188.274L252.733 188.313L260.414 180.162ZM263.638 208V219.2H274.838V208H263.638ZM256.384 208H245.184V219.2H256.384V208ZM256.384 203.164H267.584L246.038 198.874L256.384 203.164ZM253.036 207.194L258.949 216.706L259.041 216.649L259.131 216.59L253.036 207.194ZM254.214 201.18L246.177 193.379L246.118 193.441L246.059 193.504L254.214 201.18ZM256.26 194.484H267.46V183.284H256.26V194.484ZM246.03 195.414L250.09 205.852L250.164 205.823L250.238 205.793L246.03 195.414ZM245.224 201.986L237.673 210.257L245.224 201.986ZM247.58 197.42C246.823 197.42 246.541 197.285 246.506 197.268L236.875 217.492C240.312 219.129 243.956 219.82 247.58 219.82V197.42ZM246.796 197.412C246.682 197.353 246.673 197.333 246.722 197.376C246.745 197.396 246.775 197.424 246.808 197.461C246.841 197.498 246.872 197.537 246.897 197.574L228.423 210.242C230.557 213.354 233.377 215.706 236.585 217.348L246.796 197.412ZM247.02 197.757C247.146 197.949 247.265 198.194 247.344 198.468C247.423 198.737 247.434 198.933 247.434 199.01H225.034C225.034 202.898 226.087 206.69 228.3 210.059L247.02 197.757ZM247.434 199.01C247.434 198.846 247.457 199.064 247.306 199.523C247.143 200.019 246.822 200.649 246.282 201.247L229.659 186.233C226.15 190.118 225.034 194.839 225.034 199.01H247.434ZM246.399 201.115C245.863 201.728 245.395 201.983 245.302 202.031C245.224 202.07 245.421 201.959 246.042 201.821L241.183 179.955C237.389 180.798 232.893 182.534 229.542 186.365L246.399 201.115ZM246.042 201.821C247.505 201.496 250.077 201.22 254.09 201.22V178.82C249.341 178.82 244.928 179.122 241.183 179.955L246.042 201.821ZM254.09 201.22H256.26V178.82H254.09V201.22ZM267.46 190.02V188.718H245.06V190.02H267.46ZM267.46 188.718C267.46 185.413 266.796 180.314 262.816 176.334L246.977 192.174C245.889 191.086 245.405 189.97 245.208 189.325C245.025 188.726 245.06 188.453 245.06 188.718H267.46ZM262.816 176.334C258.771 172.29 253.545 171.69 250.308 171.69V194.09C250.651 194.09 250.435 194.133 249.876 193.967C249.278 193.789 248.12 193.317 246.977 192.174L262.816 176.334ZM250.308 171.69C247.416 171.69 244.588 172.15 241.859 172.975L248.342 194.417C249.168 194.167 249.811 194.09 250.308 194.09V171.69ZM242.09 172.908C239.246 173.702 236.55 174.908 234.009 176.41L245.404 195.694C246.5 195.047 247.4 194.682 248.111 194.484L242.09 172.908ZM250.02 181.684L247.788 176.414L227.161 185.15L229.393 190.42L250.02 181.684ZM243.85 189.991C244.033 189.864 244.432 189.628 245.156 189.359L237.357 168.361C235.187 169.167 233.065 170.212 231.099 171.573L243.85 189.991ZM245.316 189.298C246.114 188.988 246.965 188.747 247.885 188.582L243.928 166.534C241.623 166.948 239.375 167.574 237.197 168.422L245.316 189.298ZM248.103 188.541C249.149 188.331 249.956 188.262 250.556 188.262V165.862C248.263 165.862 245.971 166.123 243.71 166.575L248.103 188.541ZM250.556 188.262C251.934 188.262 252.68 188.427 252.978 188.521C253.228 188.6 253.004 188.574 252.652 188.235L268.177 172.089C263.123 167.229 256.493 165.862 250.556 165.862V188.262ZM252.733 188.313C252.542 188.133 252.403 187.952 252.312 187.806C252.225 187.665 252.209 187.6 252.228 187.657C252.276 187.798 252.438 188.391 252.438 189.648H274.838C274.838 183.682 273.348 176.96 268.095 172.011L252.733 188.313ZM252.438 189.648V208H274.838V189.648H252.438ZM263.638 196.8H256.384V219.2H263.638V196.8ZM267.584 208V203.164H245.184V208H267.584ZM246.038 198.874C246.095 198.737 246.211 198.52 246.405 198.285C246.601 198.05 246.8 197.89 246.941 197.798L259.131 216.59C262.575 214.357 265.166 211.227 266.73 207.454L246.038 198.874ZM247.123 197.682C247.355 197.538 247.563 197.462 247.693 197.427C247.813 197.396 247.793 197.42 247.58 197.42V219.82C251.416 219.82 255.361 218.937 258.949 216.706L247.123 197.682ZM249.192 214.488C254.134 214.488 258.816 212.632 262.37 208.856L246.059 193.504C246.402 193.138 246.934 192.727 247.632 192.434C248.318 192.146 248.889 192.088 249.192 192.088V214.488ZM262.251 208.981C265.85 205.272 267.46 200.599 267.46 195.848H245.06C245.06 195.727 245.083 195.327 245.292 194.781C245.509 194.215 245.836 193.731 246.177 193.379L262.251 208.981ZM267.46 195.848V194.484H245.06V195.848H267.46ZM256.26 183.284H254.152V205.684H256.26V183.284ZM254.152 183.284C250.26 183.284 245.572 183.514 241.822 185.035L250.238 205.793C249.886 205.936 249.707 205.967 249.8 205.947C249.877 205.93 250.093 205.888 250.482 205.844C251.277 205.753 252.472 205.684 254.152 205.684V183.284ZM241.971 184.976C239.61 185.894 237.05 187.531 235.148 190.279C233.236 193.04 232.598 196.042 232.598 198.638H254.998C254.998 199.663 254.733 201.342 253.565 203.029C252.407 204.702 250.963 205.513 250.09 205.852L241.971 184.976ZM232.598 198.638C232.598 202.938 234.246 207.129 237.673 210.257L252.776 193.715C253.412 194.295 254.03 195.101 254.459 196.109C254.882 197.102 254.998 197.999 254.998 198.638H232.598ZM237.673 210.257C241.27 213.542 245.608 214.488 249.192 214.488V192.088C249.387 192.088 251.08 192.166 252.776 193.715L237.673 210.257ZM271.257 171.172H260.057V182.372H271.257V171.172ZM271.257 163.608V152.408H260.057V163.608H271.257ZM279.937 163.608H291.137V152.408H279.937V163.608ZM279.937 171.172V182.372H291.137V171.172H279.937ZM264.685 219.966L253.539 221.068L254.61 231.896L265.464 231.139L264.685 219.966ZM264.127 214.324L262.916 203.19L251.889 204.388L252.981 215.426L264.127 214.324ZM266.979 214.014L268.189 225.148L268.234 225.144L268.279 225.138L266.979 214.014ZM271.753 177.682V166.482H260.553V177.682H271.753ZM279.503 177.682H290.703V166.482H279.503V177.682ZM276.713 216.37L268.706 208.538L268.664 208.581L268.623 208.624L276.713 216.37ZM267.351 219.78L268.13 230.953L268.162 230.951L268.193 230.948L267.351 219.78ZM282.457 171.172V163.608H260.057V171.172H282.457ZM271.257 174.808H279.937V152.408H271.257V174.808ZM268.737 163.608V171.172H291.137V163.608H268.737ZM279.937 159.972H271.257V182.372H279.937V159.972ZM275.83 218.864L275.272 213.222L252.981 215.426L253.539 221.068L275.83 218.864ZM265.337 225.458L268.189 225.148L265.768 202.88L262.916 203.19L265.337 225.458ZM268.279 225.138C271.782 224.729 275.931 223.29 279.069 219.621C282.148 216.023 282.953 211.795 282.953 208.434H260.553C260.553 208.421 260.562 206.797 262.049 205.059C263.596 203.25 265.358 202.927 265.678 202.89L268.279 225.138ZM282.953 208.434V177.682H260.553V208.434H282.953ZM271.753 188.882H279.503V166.482H271.753V188.882ZM268.303 177.682V207.442H290.703V177.682H268.303ZM268.303 207.442C268.303 208.654 268.158 209.232 268.115 209.371C268.087 209.461 268.203 209.052 268.706 208.538L284.719 224.202C289.478 219.337 290.703 212.922 290.703 207.442H268.303ZM268.623 208.624C269.126 208.099 269.462 208.04 269.144 208.156C268.799 208.282 267.985 208.5 266.508 208.612L268.193 230.948C273.69 230.533 280.138 228.987 284.802 224.116L268.623 208.624ZM266.571 208.607L263.905 208.793L265.464 231.139L268.13 230.953L266.571 208.607ZM291.642 207.38L286.536 217.348L286.68 217.422L286.826 217.492L291.642 207.38ZM287.612 203.908L278.252 210.059L278.312 210.151L278.375 210.242L287.612 203.908ZM287.922 193.74L296.233 201.247L296.292 201.182L296.35 201.115L287.922 193.74ZM293.564 190.888L291.134 179.955L293.564 190.888ZM306.212 190.02V201.22H317.412V190.02H306.212ZM304.848 184.254L296.928 192.174L296.928 192.174L304.848 184.254ZM295.052 183.696L298.062 194.484L298.178 194.452L298.293 194.417L295.052 183.696ZM289.658 186.052L279.344 190.42L284.336 202.206L295.355 195.694L289.658 186.052ZM287.426 180.782L281.05 171.573L273.559 176.76L277.112 185.15L287.426 180.782ZM291.208 178.86L295.107 189.359L295.187 189.329L295.267 189.298L291.208 178.86ZM295.858 177.558L297.836 188.582L297.945 188.562L298.054 188.541L295.858 177.558ZM310.366 180.162L302.603 188.235L302.643 188.274L302.685 188.313L310.366 180.162ZM313.59 208V219.2H324.79V208H313.59ZM306.336 208H295.136V219.2H306.336V208ZM306.336 203.164H317.536L295.99 198.874L306.336 203.164ZM302.988 207.194L308.9 216.706L308.992 216.649L309.082 216.59L302.988 207.194ZM304.166 201.18L296.129 193.379L296.069 193.441L296.01 193.504L304.166 201.18ZM306.212 194.484H317.412V183.284H306.212V194.484ZM295.982 195.414L300.041 205.852L300.115 205.823L300.189 205.793L295.982 195.414ZM295.176 201.986L287.624 210.257H287.624L295.176 201.986ZM297.532 197.42C296.774 197.42 296.492 197.285 296.457 197.268L286.826 217.492C290.263 219.129 293.907 219.82 297.532 219.82V197.42ZM296.747 197.412C296.633 197.353 296.624 197.333 296.673 197.376C296.696 197.396 296.726 197.424 296.759 197.461C296.793 197.498 296.823 197.537 296.848 197.574L278.375 210.242C280.509 213.354 283.328 215.706 286.536 217.348L296.747 197.412ZM296.971 197.757C297.097 197.949 297.216 198.194 297.296 198.468C297.374 198.737 297.386 198.933 297.386 199.01H274.986C274.986 202.898 276.038 206.69 278.252 210.059L296.971 197.757ZM297.386 199.01C297.386 198.846 297.408 199.064 297.257 199.523C297.094 200.019 296.773 200.649 296.233 201.247L279.61 186.233C276.101 190.118 274.986 194.839 274.986 199.01H297.386ZM296.35 201.115C295.814 201.728 295.346 201.983 295.253 202.031C295.175 202.07 295.372 201.959 295.993 201.821L291.134 179.955C287.34 180.798 282.844 182.534 279.493 186.365L296.35 201.115ZM295.993 201.821C297.456 201.496 300.028 201.22 304.042 201.22V178.82C299.293 178.82 294.879 179.122 291.134 179.955L295.993 201.821ZM304.042 201.22H306.212V178.82H304.042V201.22ZM317.412 190.02V188.718H295.012V190.02H317.412ZM317.412 188.718C317.412 185.413 316.747 180.314 312.767 176.334L296.928 192.174C295.84 191.086 295.356 189.97 295.159 189.325C294.976 188.726 295.012 188.453 295.012 188.718H317.412ZM312.767 176.334C308.722 172.29 303.496 171.69 300.26 171.69V194.09C300.602 194.09 300.386 194.133 299.827 193.967C299.229 193.789 298.071 193.317 296.928 192.174L312.767 176.334ZM300.26 171.69C297.367 171.69 294.539 172.15 291.81 172.975L298.293 194.417C299.119 194.167 299.762 194.09 300.26 194.09V171.69ZM292.041 172.908C289.197 173.702 286.501 174.908 283.96 176.41L295.355 195.694C296.451 195.047 297.351 194.682 298.062 194.484L292.041 172.908ZM299.971 181.684L297.739 176.414L277.112 185.15L279.344 190.42L299.971 181.684ZM293.801 189.991C293.984 189.864 294.383 189.628 295.107 189.359L287.308 168.361C285.138 169.167 283.017 170.212 281.05 171.573L293.801 189.991ZM295.267 189.298C296.065 188.988 296.917 188.747 297.836 188.582L293.879 166.534C291.574 166.948 289.326 167.574 287.148 168.422L295.267 189.298ZM298.054 188.541C299.1 188.331 299.908 188.262 300.508 188.262V165.862C298.214 165.862 295.922 166.123 293.661 166.575L298.054 188.541ZM300.508 188.262C301.885 188.262 302.631 188.427 302.929 188.521C303.179 188.6 302.955 188.574 302.603 188.235L318.128 172.089C313.074 167.229 306.444 165.862 300.508 165.862V188.262ZM302.685 188.313C302.493 188.133 302.354 187.952 302.264 187.806C302.176 187.665 302.16 187.6 302.179 187.657C302.227 187.798 302.39 188.391 302.39 189.648H324.79C324.79 183.682 323.299 176.96 318.047 172.011L302.685 188.313ZM302.39 189.648V208H324.79V189.648H302.39ZM313.59 196.8H306.336V219.2H313.59V196.8ZM317.536 208V203.164H295.136V208H317.536ZM295.99 198.874C296.047 198.737 296.162 198.52 296.357 198.285C296.552 198.05 296.751 197.89 296.893 197.798L309.082 216.59C312.526 214.357 315.117 211.227 316.681 207.454L295.99 198.874ZM297.075 197.682C297.306 197.538 297.514 197.462 297.644 197.427C297.764 197.396 297.744 197.42 297.532 197.42V219.82C301.367 219.82 305.312 218.937 308.9 216.706L297.075 197.682ZM299.144 214.488C304.085 214.488 308.767 212.632 312.321 208.856L296.01 193.504C296.354 193.138 296.885 192.727 297.583 192.434C298.269 192.146 298.84 192.088 299.144 192.088V214.488ZM312.202 208.981C315.801 205.272 317.412 200.599 317.412 195.848H295.012C295.012 195.727 295.034 195.327 295.243 194.781C295.46 194.215 295.787 193.731 296.129 193.379L312.202 208.981ZM317.412 195.848V194.484H295.012V195.848H317.412ZM306.212 183.284H304.104V205.684H306.212V183.284ZM304.104 183.284C300.211 183.284 295.523 183.514 291.774 185.035L300.189 205.793C299.838 205.936 299.658 205.967 299.751 205.947C299.828 205.93 300.044 205.888 300.433 205.844C301.228 205.753 302.424 205.684 304.104 205.684V183.284ZM291.922 184.976C289.561 185.894 287.001 187.531 285.099 190.279C283.187 193.04 282.55 196.042 282.55 198.638H304.95C304.95 199.663 304.684 201.342 303.516 203.029C302.358 204.702 300.914 205.513 300.041 205.852L291.922 184.976ZM282.55 198.638C282.55 202.938 284.197 207.129 287.624 210.257L302.727 193.715C303.363 194.295 303.981 195.101 304.41 196.109C304.833 197.102 304.95 197.999 304.95 198.638H282.55ZM287.624 210.257C291.221 213.542 295.56 214.488 299.144 214.488V192.088C299.338 192.088 301.031 192.166 302.727 193.715L287.624 210.257ZM325.362 207.69L322.364 218.481L325.362 207.69ZM319.782 205.024L309.348 200.952L306.311 208.735L312.906 213.865L319.782 205.024ZM321.766 199.94L328.036 190.66L316.426 182.815L311.332 195.868L321.766 199.94ZM326.912 202.358L323.651 213.073L323.758 213.105L323.866 213.136L326.912 202.358ZM337.018 202.172L343.414 211.366L343.453 211.339L343.492 211.311L337.018 202.172ZM334.662 196.096L336.79 185.1L336.771 185.096L336.752 185.093L334.662 196.096ZM328.462 194.918L330.552 183.915L330.542 183.913L328.462 194.918ZM322.2 181.588L313.332 174.747L313.27 174.828L313.209 174.909L322.2 181.588ZM339.684 177.992L336.343 188.682L336.445 188.714L336.548 188.744L339.684 177.992ZM344.768 180.658L355.114 184.948L358.234 177.423L352.036 172.137L344.768 180.658ZM342.66 185.742L335.519 194.37L347.199 204.036L353.006 190.032L342.66 185.742ZM338.32 183.386L334.62 193.957L334.66 193.971L334.701 193.985L338.32 183.386ZM329.02 183.572L322.546 174.433L322.454 174.498L322.363 174.565L329.02 183.572ZM331.128 189.71L333.218 178.707L333.141 178.692L333.063 178.678L331.128 189.71ZM337.328 190.888L335.237 201.891L335.266 201.897L335.294 201.902L337.328 190.888ZM343.404 193.616L335.607 201.656L335.667 201.715L335.728 201.772L343.404 193.616ZM341.978 206.078L348.518 215.17L348.57 215.133L348.622 215.095L341.978 206.078ZM332.554 197.42C330.898 197.42 329.518 197.22 328.359 196.899L322.364 218.481C325.67 219.4 329.084 219.82 332.554 219.82V197.42ZM328.359 196.899C327.222 196.583 326.761 196.264 326.658 196.183L312.906 213.865C315.778 216.099 319.037 217.557 322.364 218.481L328.359 196.899ZM330.215 209.096L332.199 204.012L311.332 195.868L309.348 200.952L330.215 209.096ZM315.495 209.22C318.019 210.925 320.762 212.194 323.651 213.073L330.173 191.643C329.259 191.365 328.571 191.021 328.036 190.66L315.495 209.22ZM323.866 213.136C326.719 213.942 329.645 214.364 332.616 214.364V191.964C331.784 191.964 330.907 191.848 329.958 191.58L323.866 213.136ZM332.616 214.364C335.432 214.364 339.669 213.971 343.414 211.366L330.622 192.978C331.63 192.276 332.467 192.052 332.742 191.99C333.025 191.926 333.025 191.964 332.616 191.964V214.364ZM343.492 211.311C347.138 208.728 349.706 204.556 349.706 199.444H327.306C327.306 198.277 327.583 196.917 328.301 195.6C329.001 194.317 329.888 193.497 330.544 193.033L343.492 211.311ZM349.706 199.444C349.706 195.418 348.044 191.597 344.901 188.859C342.181 186.49 339.055 185.539 336.79 185.1L332.534 207.092C332.831 207.149 331.628 207.004 330.189 205.751C329.396 205.06 328.609 204.093 328.049 202.848C327.493 201.609 327.306 200.416 327.306 199.444H349.706ZM336.752 185.093L330.552 183.915L326.371 205.921L332.571 207.099L336.752 185.093ZM330.542 183.913C329.293 183.677 329.787 183.489 330.627 184.363C331.065 184.817 331.401 185.368 331.601 185.917C331.79 186.434 331.788 186.754 331.788 186.734H309.388C309.388 191.306 310.811 196.074 314.485 199.893C317.95 203.495 322.381 205.167 326.382 205.923L330.542 183.913ZM331.788 186.734C331.788 186.761 331.783 186.976 331.679 187.308C331.571 187.65 331.4 187.985 331.191 188.267L313.209 174.909C310.554 178.483 309.388 182.6 309.388 186.734H331.788ZM331.068 188.429C331.015 188.497 330.96 188.558 330.907 188.609C330.854 188.66 330.811 188.695 330.786 188.713C330.733 188.752 330.778 188.708 330.985 188.624L322.59 167.856C319.079 169.276 315.832 171.506 313.332 174.747L331.068 188.429ZM330.985 188.624C331.353 188.475 332.116 188.262 333.484 188.262V165.862C329.809 165.862 326.108 166.434 322.59 167.856L330.985 188.624ZM333.484 188.262C334.539 188.262 335.477 188.412 336.343 188.682L343.024 167.302C339.923 166.332 336.727 165.862 333.484 165.862V188.262ZM336.548 188.744C337.194 188.932 337.434 189.124 337.5 189.179L352.036 172.137C349.291 169.795 346.142 168.209 342.82 167.24L336.548 188.744ZM334.422 176.368L332.314 181.452L353.006 190.032L355.114 184.948L334.422 176.368ZM349.801 177.114C347.412 175.137 344.726 173.739 341.939 172.787L334.701 193.985C335.303 194.191 335.51 194.363 335.519 194.37L349.801 177.114ZM342.02 172.815C339.347 171.879 336.504 171.318 333.546 171.318V193.718C333.647 193.718 333.985 193.735 334.62 193.957L342.02 172.815ZM333.546 171.318C330.598 171.318 326.318 171.761 322.546 174.433L335.494 192.711C334.529 193.394 333.723 193.623 333.436 193.69C333.148 193.757 333.143 193.718 333.546 193.718V171.318ZM322.363 174.565C318.627 177.326 316.394 181.563 316.394 186.362H338.794C338.794 187.361 338.576 188.616 337.923 189.894C337.274 191.163 336.409 192.037 335.677 192.579L322.363 174.565ZM316.394 186.362C316.394 189.937 317.672 193.755 320.775 196.694C323.549 199.322 326.818 200.325 329.192 200.742L333.063 178.678C333.082 178.682 334.584 178.92 336.18 180.432C338.104 182.255 338.794 184.605 338.794 186.362H316.394ZM329.037 200.713L335.237 201.891L339.418 179.885L333.218 178.707L329.037 200.713ZM335.294 201.902C335.615 201.961 335.852 202.021 336.018 202.07C336.183 202.12 336.263 202.154 336.274 202.159C336.295 202.169 336.003 202.04 335.607 201.656L351.201 185.576C347.698 182.179 343.313 180.604 339.361 179.874L335.294 201.902ZM335.728 201.772C335.244 201.316 334.829 200.717 334.569 200.059C334.323 199.436 334.312 199.009 334.312 198.948H356.712C356.712 194.156 355.092 189.236 351.08 185.46L335.728 201.772ZM334.312 198.948C334.312 198.97 334.317 198.578 334.593 198.02C334.876 197.45 335.227 197.141 335.334 197.061L348.622 215.095C353.946 211.172 356.712 205.394 356.712 198.948H334.312ZM335.438 196.986C335.556 196.901 334.948 197.42 332.554 197.42V219.82C338.013 219.82 343.687 218.645 348.518 215.17L335.438 196.986ZM353.286 183.51H364.486V172.31H353.286V183.51ZM347.458 183.51H336.258V194.71H347.458V183.51ZM347.458 177.682V166.482H336.258V177.682H347.458ZM353.286 177.682V188.882H364.486V177.682H353.286ZM353.286 168.63V157.43H342.086V168.63H353.286ZM361.036 168.63H372.236V157.43H361.036V168.63ZM361.036 177.682H349.836V188.882H361.036V177.682ZM370.212 177.682H381.412V166.482H370.212V177.682ZM370.212 183.51V194.71H381.412V183.51H370.212ZM361.036 183.51V172.31H349.836V183.51H361.036ZM362.338 200.746L353.91 208.121V208.121L362.338 200.746ZM368.352 202.048L370.549 213.031L370.896 212.961L371.238 212.87L368.352 202.048ZM370.274 201.552L381.243 199.287L378.882 187.855L367.558 190.686L370.274 201.552ZM371.452 207.256L376.892 217.047L384.085 213.05L382.421 204.991L371.452 207.256ZM368.6 208.248L366.254 197.297L366.212 197.306L366.171 197.315L368.6 208.248ZM365.314 197.42C364.2 197.42 363.677 197.278 363.561 197.24C363.514 197.224 363.575 197.24 363.703 197.316C363.836 197.395 364.003 197.516 364.172 197.683C364.341 197.851 364.469 198.021 364.555 198.164C364.639 198.302 364.662 198.377 364.652 198.349C364.626 198.271 364.486 197.79 364.486 196.716H342.086C342.086 202.44 343.544 208.784 348.415 213.605C353.265 218.404 359.608 219.82 365.314 219.82V197.42ZM364.486 196.716V183.51H342.086V196.716H364.486ZM353.286 172.31H347.458V194.71H353.286V172.31ZM358.658 183.51V177.682H336.258V183.51H358.658ZM347.458 188.882H353.286V166.482H347.458V188.882ZM364.486 177.682V168.63H342.086V177.682H364.486ZM353.286 179.83H361.036V157.43H353.286V179.83ZM349.836 168.63V177.682H372.236V168.63H349.836ZM361.036 188.882H370.212V166.482H361.036V188.882ZM359.012 177.682V183.51H381.412V177.682H359.012ZM370.212 172.31H361.036V194.71H370.212V172.31ZM349.836 183.51V196.282H372.236V183.51H349.836ZM349.836 196.282C349.836 199.652 350.541 204.272 353.91 208.121L370.767 193.371C371.58 194.299 371.954 195.202 372.114 195.75C372.264 196.263 372.236 196.494 372.236 196.282H349.836ZM353.91 208.121C357.75 212.51 362.938 213.434 366.554 213.434V191.034C366.286 191.034 368.663 190.966 370.767 193.371L353.91 208.121ZM366.554 213.434C367.935 213.434 369.272 213.286 370.549 213.031L366.156 191.065C366.193 191.058 366.331 191.034 366.554 191.034V213.434ZM371.238 212.87C371.799 212.72 372.383 212.57 372.991 212.418L367.558 190.686C366.844 190.865 366.146 191.045 365.467 191.226L371.238 212.87ZM359.306 203.817L360.484 209.521L382.421 204.991L381.243 199.287L359.306 203.817ZM366.013 197.465C366.295 197.309 366.476 197.245 366.502 197.236C366.531 197.226 366.457 197.253 366.254 197.297L370.947 219.199C372.798 218.803 374.885 218.162 376.892 217.047L366.013 197.465ZM366.171 197.315C365.802 197.397 365.522 197.42 365.314 197.42V219.82C367.257 219.82 369.167 219.595 371.03 219.181L366.171 197.315ZM375.221 208H364.021V219.2H375.221V208ZM375.221 164.29V153.09H364.021V164.29H375.221ZM382.971 164.29H394.171V153.09H382.971V164.29ZM382.971 182.084H371.771V221.136L392.469 188.02L382.971 182.084ZM387.125 178.364L391.941 188.476L392.038 188.43L392.134 188.382L387.125 178.364ZM403.617 208V219.2H414.817V208H403.617ZM395.867 208H384.667V219.2H395.867V208ZM394.503 184.75L385.79 191.787L385.871 191.887L385.953 191.985L394.503 184.75ZM384.955 185.308L376.806 177.625L376.8 177.632L384.955 185.308ZM382.971 208V219.2H394.171V208H382.971ZM386.421 208V164.29H364.021V208H386.421ZM375.221 175.49H382.971V153.09H375.221V175.49ZM371.771 164.29V182.084H394.171V164.29H371.771ZM392.469 188.02C392.454 188.043 392.387 188.141 392.257 188.257C392.125 188.375 392.005 188.446 391.941 188.476L382.31 168.252C378.619 170.01 375.621 172.712 373.474 176.148L392.469 188.02ZM392.134 188.382C392.184 188.357 392.37 188.262 392.891 188.262V165.862C389.197 165.862 385.539 166.635 382.117 168.346L392.134 188.382ZM392.891 188.262C393.62 188.262 393.76 188.371 393.539 188.285C393.422 188.24 393.237 188.152 393.023 188.002C392.806 187.851 392.609 187.672 392.447 187.484C392.111 187.094 392.1 186.876 392.181 187.161C392.272 187.478 392.417 188.214 392.417 189.524H414.817C414.817 184.021 413.669 177.803 409.425 172.871C404.903 167.618 398.668 165.862 392.891 165.862V188.262ZM392.417 189.524V208H414.817V189.524H392.417ZM403.617 196.8H395.867V219.2H403.617V196.8ZM407.067 208V189.896H384.667V208H407.067ZM407.067 189.896C407.067 186.536 406.499 181.588 403.053 177.515L385.953 191.985C385.093 190.968 384.791 190.054 384.7 189.712C384.614 189.385 384.667 189.391 384.667 189.896H407.067ZM403.216 177.713C399.544 173.166 394.405 171.938 390.411 171.938V194.338C390.298 194.338 389.649 194.326 388.724 193.962C387.718 193.565 386.649 192.85 385.79 191.787L403.216 177.713ZM390.411 171.938C385.538 171.938 380.598 173.604 376.806 177.625L393.104 192.991C392.683 193.438 392.116 193.835 391.482 194.088C390.879 194.327 390.466 194.338 390.411 194.338V171.938ZM376.8 177.632C373.109 181.553 371.771 186.405 371.771 190.95H394.171C394.171 190.813 394.191 191.04 394.033 191.488C393.863 191.972 393.556 192.511 393.111 192.984L376.8 177.632ZM371.771 190.95V208H394.171V190.95H371.771ZM382.971 196.8H375.221V219.2H382.971V196.8ZM415.581 207.38L410.475 217.348L410.619 217.422L410.766 217.492L415.581 207.38ZM411.551 203.908L402.191 210.059L402.252 210.151L402.314 210.242L411.551 203.908ZM411.861 193.74L420.173 201.247L420.232 201.182L420.29 201.115L411.861 193.74ZM417.503 190.888L415.073 179.955L417.503 190.888ZM430.151 190.02V201.22H441.351V190.02H430.151ZM428.787 184.254L420.867 192.174L420.867 192.174L428.787 184.254ZM418.991 183.696L422.002 194.484L422.117 194.452L422.232 194.417L418.991 183.696ZM413.597 186.052L403.284 190.42L408.275 202.206L419.295 195.694L413.597 186.052ZM411.365 180.782L404.99 171.573L397.498 176.76L401.052 185.15L411.365 180.782ZM415.147 178.86L419.047 189.359L419.127 189.329L419.206 189.298L415.147 178.86ZM419.797 177.558L421.776 188.582L421.885 188.562L421.993 188.541L419.797 177.558ZM434.305 180.162L426.542 188.235L426.583 188.274L426.624 188.313L434.305 180.162ZM437.529 208V219.2H448.729V208H437.529ZM430.275 208H419.075V219.2H430.275V208ZM430.275 203.164H441.475L419.929 198.874L430.275 203.164ZM426.927 207.194L432.84 216.706L432.931 216.649L433.022 216.59L426.927 207.194ZM428.105 201.18L420.068 193.379L420.008 193.441L419.949 193.504L428.105 201.18ZM430.151 194.484H441.351V183.284H430.151V194.484ZM419.921 195.414L423.98 205.852L424.055 205.823L424.129 205.793L419.921 195.414ZM419.115 201.986L411.563 210.257L419.115 201.986ZM421.471 197.42C420.714 197.42 420.431 197.285 420.396 197.268L410.766 217.492C414.203 219.129 417.847 219.82 421.471 219.82V197.42ZM420.687 197.412C420.573 197.353 420.564 197.333 420.613 197.376C420.636 197.396 420.666 197.424 420.699 197.461C420.732 197.498 420.762 197.537 420.788 197.574L402.314 210.242C404.448 213.354 407.268 215.706 410.475 217.348L420.687 197.412ZM420.911 197.757C421.037 197.949 421.155 198.194 421.235 198.468C421.313 198.737 421.325 198.933 421.325 199.01H398.925C398.925 202.898 399.978 206.69 402.191 210.059L420.911 197.757ZM421.325 199.01C421.325 198.846 421.348 199.064 421.197 199.523C421.033 200.019 420.713 200.649 420.173 201.247L403.549 186.233C400.04 190.118 398.925 194.839 398.925 199.01H421.325ZM420.29 201.115C419.754 201.728 419.285 201.983 419.192 202.031C419.115 202.07 419.312 201.959 419.933 201.821L415.073 179.955C411.279 180.798 406.784 182.534 403.432 186.365L420.29 201.115ZM419.933 201.821C421.395 201.496 423.967 201.22 427.981 201.22V178.82C423.232 178.82 418.819 179.122 415.073 179.955L419.933 201.821ZM427.981 201.22H430.151V178.82H427.981V201.22ZM441.351 190.02V188.718H418.951V190.02H441.351ZM441.351 188.718C441.351 185.413 440.686 180.314 436.707 176.334L420.867 192.174C419.78 191.086 419.296 189.97 419.099 189.325C418.916 188.726 418.951 188.453 418.951 188.718H441.351ZM436.707 176.334C432.662 172.29 427.435 171.69 424.199 171.69V194.09C424.542 194.09 424.326 194.133 423.766 193.967C423.169 193.789 422.01 193.317 420.867 192.174L436.707 176.334ZM424.199 171.69C421.307 171.69 418.478 172.15 415.75 172.975L422.232 194.417C423.058 194.167 423.702 194.09 424.199 194.09V171.69ZM415.98 172.908C413.137 173.702 410.441 174.908 407.899 176.41L419.295 195.694C420.391 195.047 421.291 194.682 422.002 194.484L415.98 172.908ZM423.91 181.684L421.678 176.414L401.052 185.15L403.284 190.42L423.91 181.684ZM417.74 189.991C417.923 189.864 418.323 189.628 419.047 189.359L411.247 168.361C409.078 169.167 406.956 170.212 404.99 171.573L417.74 189.991ZM419.206 189.298C420.004 188.988 420.856 188.747 421.776 188.582L417.818 166.534C415.514 166.948 413.266 167.574 411.088 168.422L419.206 189.298ZM421.993 188.541C423.039 188.331 423.847 188.262 424.447 188.262V165.862C422.154 165.862 419.861 166.123 417.6 166.575L421.993 188.541ZM424.447 188.262C425.825 188.262 426.571 188.427 426.869 188.521C427.118 188.6 426.894 188.574 426.542 188.235L442.068 172.089C437.013 167.229 430.384 165.862 424.447 165.862V188.262ZM426.624 188.313C426.433 188.133 426.294 187.952 426.203 187.806C426.116 187.665 426.099 187.6 426.119 187.657C426.167 187.798 426.329 188.391 426.329 189.648H448.729C448.729 183.682 447.239 176.96 441.986 172.011L426.624 188.313ZM426.329 189.648V208H448.729V189.648H426.329ZM437.529 196.8H430.275V219.2H437.529V196.8ZM441.475 208V203.164H419.075V208H441.475ZM419.929 198.874C419.986 198.737 420.101 198.52 420.296 198.285C420.491 198.05 420.69 197.89 420.832 197.798L433.022 216.59C436.465 214.357 439.056 211.227 440.621 207.454L419.929 198.874ZM421.014 197.682C421.245 197.538 421.454 197.462 421.584 197.427C421.703 197.396 421.683 197.42 421.471 197.42V219.82C425.307 219.82 429.251 218.937 432.84 216.706L421.014 197.682ZM423.083 214.488C428.025 214.488 432.707 212.632 436.261 208.856L419.949 193.504C420.293 193.138 420.825 192.727 421.523 192.434C422.209 192.146 422.779 192.088 423.083 192.088V214.488ZM436.142 208.981C439.741 205.272 441.351 200.599 441.351 195.848H418.951C418.951 195.727 418.973 195.327 419.183 194.781C419.4 194.215 419.727 193.731 420.068 193.379L436.142 208.981ZM441.351 195.848V194.484H418.951V195.848H441.351ZM430.151 183.284H428.043V205.684H430.151V183.284ZM428.043 183.284C424.15 183.284 419.463 183.514 415.713 185.035L424.129 205.793C423.777 205.936 423.598 205.967 423.69 205.947C423.768 205.93 423.983 205.888 424.373 205.844C425.168 205.753 426.363 205.684 428.043 205.684V183.284ZM415.862 184.976C413.501 185.894 410.941 187.531 409.038 190.279C407.127 193.04 406.489 196.042 406.489 198.638H428.889C428.889 199.663 428.623 201.342 427.456 203.029C426.297 204.702 424.853 205.513 423.98 205.852L415.862 184.976ZM406.489 198.638C406.489 202.938 408.137 207.129 411.563 210.257L426.667 193.715C427.302 194.295 427.921 195.101 428.35 196.109C428.772 197.102 428.889 197.999 428.889 198.638H406.489ZM411.563 210.257C415.161 213.542 419.499 214.488 423.083 214.488V192.088C423.278 192.088 424.971 192.166 426.667 193.715L411.563 210.257ZM445.395 208H434.195V219.2H445.395V208ZM445.395 177.682V166.482H434.195V177.682H445.395ZM452.959 177.682H464.159V166.482H452.959V177.682ZM452.959 182.394H441.759V223.107L462.583 188.123L452.959 182.394ZM457.113 178.426L452.012 168.455L451.964 168.48L451.916 168.505L457.113 178.426ZM473.791 208V219.2H484.991V208H473.791ZM466.041 208H454.841V219.2H466.041V208ZM464.677 184.75L455.964 191.787L456.045 191.887L456.127 191.985L464.677 184.75ZM455.129 185.308L446.98 177.625L446.973 177.632L455.129 185.308ZM453.145 208V219.2H464.345V208H453.145ZM456.595 208V177.682H434.195V208H456.595ZM445.395 188.882H452.959V166.482H445.395V188.882ZM441.759 177.682V182.394H464.159V177.682H441.759ZM462.583 188.123C462.61 188.079 462.59 188.122 462.509 188.199C462.472 188.234 462.432 188.267 462.393 188.295C462.353 188.323 462.324 188.34 462.31 188.347L451.916 168.505C448.287 170.406 445.394 173.207 443.335 176.665L462.583 188.123ZM462.215 188.397C462.263 188.372 462.473 188.262 463.065 188.262V165.862C459.276 165.862 455.518 166.662 452.012 168.455L462.215 188.397ZM463.065 188.262C463.794 188.262 463.934 188.371 463.713 188.285C463.596 188.24 463.411 188.152 463.196 188.002C462.98 187.851 462.783 187.672 462.621 187.484C462.285 187.094 462.273 186.876 462.355 187.161C462.446 187.478 462.591 188.214 462.591 189.524H484.991C484.991 184.021 483.843 177.803 479.598 172.871C475.077 167.618 468.842 165.862 463.065 165.862V188.262ZM462.591 189.524V208H484.991V189.524H462.591ZM473.791 196.8H466.041V219.2H473.791V196.8ZM477.241 208V189.896H454.841V208H477.241ZM477.241 189.896C477.241 186.536 476.673 181.588 473.227 177.515L456.127 191.985C455.267 190.968 454.965 190.054 454.874 189.712C454.787 189.385 454.841 189.391 454.841 189.896H477.241ZM473.39 177.713C469.718 173.166 464.579 171.938 460.585 171.938V194.338C460.472 194.338 459.823 194.326 458.898 193.962C457.892 193.565 456.823 192.85 455.964 191.787L473.39 177.713ZM460.585 171.938C455.712 171.938 450.772 173.604 446.98 177.625L463.278 192.991C462.857 193.438 462.29 193.835 461.655 194.088C461.053 194.327 460.64 194.338 460.585 194.338V171.938ZM446.973 177.632C443.283 181.553 441.945 186.405 441.945 190.95H464.345C464.345 190.813 464.365 191.04 464.207 191.488C464.037 191.972 463.73 192.511 463.285 192.984L446.973 177.632ZM441.945 190.95V208H464.345V190.95H441.945ZM453.145 196.8H445.395V219.2H453.145V196.8Z" fill="white" mask="url(#path-2-outside-1_357_6609)"/>
</svg>
